<?xml version="1.0" encoding="utf-8"?>
<!-- Generator: Adobe Illustrator 22.1.0, SVG Export Plug-In . SVG Version: 6.00 Build 0)  -->
<svg version="1.1" id="图层_1" xmlns="http://www.w3.org/2000/svg" xmlns:xlink="http://www.w3.org/1999/xlink" width="1000px" height="200px" viewBox="680 250 200 285"
	 xml:space="preserve">
<style type="text/css">
	.st0{fill:#B22211;}
	.st1{fill:#B32211;}
	.st2{fill:#B32212;}
	.st3{fill:#B32111;}
	.st4{fill:#B22212;}
	.st5{fill:#B22312;}
	.st6{fill:#B12313;}
	.st7{fill:#B22313;}
	.st8{fill:#B02413;}
	.st9{fill:#B42211;}
	.st10{fill:#B32312;}
	.st11{fill:#AA291B;}
	.st12{fill:#FDE3D5;}
	.st13{fill:#F1CFC0;}
	.st14{fill:#FDFDFD;}
	.st15{fill:#FEFDFD;}
	.st16{fill:#FCFBF8;}
	.st17{fill:#764031;}
	.st18{fill:#FEFEFE;}
	.st19{fill:#FCFAF8;}
	.st20{fill:#FBF9F7;}
	.st21{fill:#A82624;}
</style>
	<g>
	<g>
		<path class="st0" d="M665.5,373c0.5-0.8,1.1-0.6,1.6-0.5c5.3,0.7,7.9-2.6,7.7-7.9c-0.2-5.4-1.8-10.4-5-14.8
			c-1.2-1.6-1.3-3.1-1-4.9c0.9-5.3,1.7-10.6,2.6-15.9c0.2-1.1,0-1.5-1.2-1.6c-6.7-0.5-6.7-0.6-6.7,6.2c0,21,0,42.1,0,63.1
			c0,3.6-3.9,6.2-7.3,5c-1.3-0.5-1.3-1.5-1.3-2.6c0-6.3,0.3-12.5,0.3-18.8c0.2-18.5,0-36.9,0-55.4c0-3.2,0.1-3.4,3-1.9
			c3.8,2,7.6,3.1,11.9,2.6c1.3-0.1,2.2-0.3,2.6-1.7c0.6-2.2,2-2.4,3.9-1.5c2.6,1.1,5.2,2.2,7.6,3.7c0.5,0.3,1.1,0.5,1.1,1.3
			c-0.1,0.8-0.8,0.9-1.3,1c-1.4,0.3-2.1,1.2-2.8,2.3c-3.2,4.7-6.3,9.4-9.6,14c-1.1,1.5-1.1,2.3,0.5,3.6c5.3,4.2,9.4,9.3,10.9,16.1
			c1.7,7.9-2.2,14.9-9.3,17c-1.4,0.4-2,0.3-2.4-1.2C670.3,377.1,668.6,374.5,665.5,373z"/>
		<path class="st1" d="M382.6,371c-4.3,2.1-7.3,0.2-7-4.7c0.2-2.8,0.4-5.6-1-8.3c-1-1.8-1.6-2.5-3.2-0.4c-2.9,4-6,7.9-9.8,11.1
			c-0.4,0.3-0.6,1.3-1.3,0.8c-0.9-0.6-0.1-1.3,0.2-1.7c3.9-6.6,7-13.6,9.4-20.9c2.6-7.6,4.4-15.4,5.2-23.4c0.3-2.7,0.7-3,3.1-1.9
			c3.5,1.4,7,3,10.4,4.5c0.7,0.3,2.1,1.1,0.7,1.7c-4.4,1.8-4.4,6.2-6.2,9.6c-0.3,0.5-0.4,1.1-0.7,2c2.5,0,4.8,0,7.1,0
			c1.1,0,1.7-0.6,2.4-1.3c2.7-2.6,3.3-2.7,6.4-0.8c2,1.2,3.9,2.5,5.8,3.7c1.3,0.8,1.3,1.9,0,2.4c-2.2,0.9-2.2,2.8-2.6,4.6
			c-2.2,9.5-5.5,18.6-11.1,26.7c-7,10.2-16.7,16.5-28.8,19.2c-0.7,0.2-1.5,0.5-2.4-0.1c0.5-0.8,1.4-1,2.1-1.3
			c8.5-3.9,15.2-9.8,20.3-17.7c0.8-1.2,0.8-2.7,2-3.6c0.1-1.6,1.4-2.7,1.5-4.3c1.6-4.5,3.4-9,4.5-13.8c0.6-2.8,1-5.7,1.6-8.6
			c0.3-1.7-0.3-2.5-2.1-2.4c-0.4,0,0.1,0.1-0.3,0c-4.8-0.7-8.6,0.3-10.2,5.6c-0.5,1.5-1.7,2.9-2.5,4.3c-1.5,2.5-1.5,2.6,1.2,3.6
			c3.2,1.3,5.9,3.1,7.5,6.4c0.3,0.6,0.5,1.1,0.5,1.8C385.4,366.5,385.5,369.3,382.6,371z"/>
		<path class="st0" d="M669.8,399.6c3.8-1.2,7.6-2.5,11-4.7c8.1-5.4,11.3-13.4,12.3-22.7c0-0.3,0-0.5,0-0.8c0.3-5.1,0.3-5.1-4.8-5.1
			c-1.6,0-2.5-0.6-2.9-2c10.8,0,21.5-0.1,32.3,0c2.2,0,3.7-0.5,5.1-2.4c3.5-4.8,3.6-4.7,8.3-1c1.1,0.9,2.1,1.8,3.2,2.8
			c0.5,0.5,1.1,1,0.9,1.8c-0.3,0.9-1.2,0.6-1.8,0.6c-3.4,0-6.9,0-10.3,0c-4.1,0-5.7,1.6-5.7,5.6c0,5.5,0.1,11,0,16.4
			c-0.1,2.4,1.1,3.3,3.3,3.5c9.2,0.7,13.1-2.1,15.6-11.3c0.2-0.8,0.2-1.8,0.9-2.4c1,0.2,0.5,0.9,0.4,1.5c-0.6,4.1-0.4,8.1,1.9,11.7
			c1.6,2.4,1.1,4.3-1.3,6.1c-2.4,1.7-5.2,2.3-8,2.4c-4.7,0.1-9.4,0.1-14.1,0c-4.3-0.1-7.2-1.6-7-7.1c0.3-8,0.1-16.1,0.1-24.1
			c0-2.2-1.6-3.1-3.4-1.9c-1.6,1-2.9,2.2-3,4.6c-0.4,8.5-3.1,16.1-10.1,21.6C685.7,397.8,678,399.5,669.8,399.6z"/>
		<path class="st2" d="M608.5,357.1c-11,0-21.3,0-31.7,0c-1.5,0-2.8-0.2-3.2-2.1c10.5,0,20.9-0.1,31.3,0.1c2.4,0,4.3-0.4,5.7-2.3
			c1.2-1.6,2.6-1.5,4.1-0.5c2.6,1.8,5.3,3.5,7.9,5.3c0.7,0.4,1.3,0.8,0.9,1.9c-0.3,1.1-1.1,1-1.9,1c-4.2,0.2-8.1,1.5-12,2.9
			c-4.1,1.4-6.1,5.6-5.5,9.6c0.1,1,0.5,1.3,1.5,1.3c5.7,0,11.3,0,17,0.1c1.2,0,1.7-0.7,2.3-1.5c6.1-7.4,4-6.4,11.4-1.9
			c1.2,0.7,2.3,1.7,3.3,2.6c0.6,0.5,1.6,1.1,1.1,2.2c-0.4,1-1.4,0.6-2.1,0.6c-10.3,0-20.5,0-30.8,0c-4.1,0-3.6-0.6-3.5,3.7
			c0,4.1,0.1,8.1,0.1,12.2c0,6-5.9,10.9-11.8,10c-1.1-0.2-1.6-0.8-1.8-1.6c-1.4-4.7-5-7.1-9.4-8.4c-0.7-0.2-1.9,0-1.7-1.1
			c0.2-1.3,1.4-0.7,2.2-0.6c2.6,0.1,5.3,0.5,7.9,0.1c3.5-0.5,4.4-1.6,4.4-5c0-2.3-0.1-4.6,0-6.9c0.1-1.8-0.5-2.4-2.4-2.4
			c-10.5,0.1-21,0-31.6,0.1c-1.5,0-2.8-0.2-3.3-2.1c4.6,0,9.1,0,13.6,0c7.1,0,14.1-0.1,21.2,0c2,0,2.6-0.6,2.5-2.5
			c-0.1-2.6,0-5.1-0.5-7.6c-0.3-1.6,0.3-1.9,1.7-1.6c2.2,0.5,4.3,0.9,6.5,1.4c1.4,0.3,2.3,0,3-1.3C605.9,361,607,359.4,608.5,357.1z
			"/>
		<path class="st2" d="M484.2,341c3.7,0.5,7.4,0.1,11,0.3c1.4,0.1,1.7-0.7,1.8-1.7c0.4-3.1,0.8-6.3,1.3-9.4c0.2-1.4-0.5-1.6-1.6-1.6
			c-3.3,0.1-6.5,0-9.8,0.2c-1.6,0.1-2.7-0.4-3.6-2.1c1.5,0,2.9,0,4.2,0c10.6,0,21.2-0.1,31.8,0c2.3,0,3.8-0.6,5.3-2.5
			c3.8-4.9,3.9-4.9,8.9-1c1.3,1,2.4,2.1,3.6,3.1c0.5,0.5,1.2,0.9,0.8,1.7c-0.3,0.6-1.1,0.5-1.7,0.5c-4.8,0-9.5,0-14.3,0
			c-3,0-6,0-9,0c-3.6,0-5.5,1.5-6.4,4.9c-0.5,2-0.9,4-1.3,5.9c-0.3,1.3,0.1,2,1.6,1.9c1.7-0.1,3.4-0.1,5,0c2.6,0.2,4.8,0,6.2-2.7
			c0.7-1.4,2-1.6,3.4-0.9c2.2,1.2,4.3,2.3,6.6,3.5c1.5,0.7,1.4,1.5,0.1,2.2c-1.3,0.7-1.7,1.9-1.9,3.3c-0.4,3.8-1,7.5-1.4,11.3
			c-0.1,0.6-0.9,1.7,0.4,2c1,0.2,1.8,0.1,2.5-0.9c1-1.5,2.4-2.9,3.5-4.3c1-1.2,1.9-1.6,3.4-0.7c2.3,1.5,4.6,3,6.5,5
			c0.6,0.6,1.7,1.3,1.3,2.1c-0.4,1.1-1.7,0.5-2.6,0.5c-16.9,0-33.8,0-50.7,0.1c-2.1,0-4.2,0.2-6.3,0.4c-1.6,0.1-2.5-0.5-3-2.1
			c3.9,0,7.8-0.1,11.6,0c1.5,0,2.2-0.4,2.4-2c0.6-4.3,1.4-8.5,2.1-12.8c0.3-1.4-0.2-1.9-1.6-1.8c-2.1,0.1-4.2-0.1-6.4,0
			C486.2,343.5,484.8,343,484.2,341z"/>
		<path class="st3" d="M408.8,359.7c0.9-13.1,1.1-26.2,0.9-39.2c0-1.6,0.3-2.2,2-2.1c3,0.3,6,0.4,8.8,1.5c1.4,0.5,2.1,1.5,0.6,2.4
			c-2.2,1.3-2,3.3-2,5.3c-0.1,22.7,0.2,45.4,0.6,68.1c0.1,3.9-0.2,4.3-3.9,5.3c-6.3,1.8-7.1,1.1-7.1-5.3
			C408.8,383.8,408.8,371.7,408.8,359.7z"/>
		<path class="st3" d="M464.7,476.6c-2.5,0-5,0-7.4,0c-0.5,0-1.2,0.3-1.3-0.4c-0.2-0.8,0.5-0.8,1-0.9c3.1-0.4,3.7-2.4,3.6-5.1
			c-0.1-2.9-0.1-5.8,0-8.8c0.1-1.5-0.5-2-2-1.9c-2.9,0.1-5.8,0.1-8.8,0c-1.5,0-2,0.4-2,1.9c0.1,3.3,0.1,6.5,0,9.8
			c-0.1,2.4,0.9,3.7,3.2,4c0.6,0.1,1.4-0.1,1.5,0.8c0,1-0.9,0.6-1.4,0.6c-5,0-10.1,0-15.1,0c-0.5,0-1.2,0.2-1.3-0.5
			c-0.1-0.8,0.6-0.8,1.1-0.8c2.7-0.3,3.4-2.1,3.4-4.5c0-7.9,0-15.7,0-23.6c0-2.6-0.5-4.8-3.7-5.1c-0.5,0-0.8-0.2-0.8-0.8
			c0.1-0.6,0.5-0.7,1-0.7c5.3,0,10.6,0,15.9,0c0.5,0,1.1,0.1,1,0.8c-0.1,0.6-0.6,0.6-1,0.6c-3,0.1-3.9,1.9-3.7,4.6
			c0.1,2.8,0.1,5.7,0,8.5c0,1.4,0.4,1.8,1.8,1.8c3-0.1,6-0.1,9,0c1.3,0,1.9-0.3,1.9-1.7c-0.1-3.1,0-6.2,0-9.3c0-2.2-1.1-3.4-3.2-3.8
			c-0.5-0.1-1.4,0.3-1.4-0.7c0-1.1,1-0.8,1.6-0.8c4.9,0,9.7,0,14.6,0c0.6,0,1.6-0.4,1.7,0.7c0.1,1-0.8,0.7-1.4,0.8
			c-2.2,0.4-3.2,1.7-3.2,3.9c0,8.6,0,17.2,0,25.7c0,2.2,1.3,3.1,3.3,3.4c0.5,0.1,1.4,0,1.2,1c-0.1,0.7-0.9,0.4-1.3,0.4
			C469.9,476.6,467.3,476.6,464.7,476.6z"/>
		<path class="st1" d="M791.8,459.4c4.3,5.2,7.2,11.4,12.2,16c0.3,0.2,0.6,0.4,0.4,0.9c-0.1,0.5-0.5,0.4-0.9,0.4c-3,0-6,0-9,0
			c-1.1,0-1.4-1-1.9-1.7c-2.9-4.4-5.8-8.8-8.8-13.2c-0.5-0.7-0.8-1.8-1.9-1.5c-1.2,0.3-0.6,1.5-0.6,2.3c-0.1,2.7,0,5.5-0.1,8.2
			c-0.1,2.5,0.5,4.4,3.5,4.6c0.5,0,1.2,0,1.1,0.8c-0.1,0.6-0.6,0.5-1,0.5c-5.4,0-10.8,0-16.2,0c-0.2,0-0.4-0.2-0.5-0.3
			c0-0.2,0-0.3,0-0.4c4.5-0.8,4.7-4,4.6-7.7c-0.2-7-0.1-14-0.1-20.9c0-2.7-0.4-5-3.8-5.2c-0.3,0-0.7,0-0.8-0.5
			c0-0.6,0.3-0.8,0.8-0.8c0.4,0,0.7,0,1.1,0c6.2,0.1,12.4,0.2,18.5,0.3c2.1,0,4.2,0.6,6.1,1.4c3.2,1.4,5.1,3.6,5.3,7.2
			c0.2,3.7-1.4,6.3-4.5,8C794.3,458.3,793.1,458.8,791.8,459.4z"/>
		<path class="st4" d="M488.9,368.4c1.7,0.2,3.2,0.8,4.5,1.6c2.6,1.6,5.3,1.7,8.1,1.6c5-0.1,9.9-0.1,14.9,0c1.8,0,3.2-0.3,4.4-1.7
			c1.4-1.8,3.1-2.1,5.1-0.7c1.6,1.1,3.3,2.1,4.9,3.2c1.3,0.8,1.4,1.9,0.1,2.7c-1.8,1-1.9,2.5-1.8,4.3c0.3,5.6,0.4,11.1,0.9,16.7
			c0.3,3-1.6,4.1-5.7,4.7c-2.4,0.3-3.8-1.2-3.7-3.9c0.1-1.9-0.4-2.6-2.4-2.5c-6.3,0.1-12.6,0.1-18.8,0c-2,0-2.8,0.4-2.7,2.6
			c0.1,2.5-1.8,4-3.9,4.9c-1.6,0.7-2.8-0.4-3.9-1.6c-0.6-0.6-0.8-1.3-0.8-2.2C488.4,388.1,488.7,378.3,488.9,368.4z"/>
		<path class="st5" d="M608.7,343.4c3-6.8,5.3-13.8,7.9-20.7c1.4-3.7,1.8-3.7,5.3-1.9c2.6,1.3,5.3,2.4,7.9,3.7
			c0.8,0.4,2.1,0.2,2.2,1.5c0.1,1.4-1.2,1.3-2,1.7c-7.4,3.8-12.8,10-18.4,16.2c4.2,0,8.4,0,12.6,0c1.3,0,1.8-1.4,2.5-2.2
			c1.4-1.6,2.4-2.1,4.3-0.5c2.4,2.1,5.2,3.7,7.8,5.5c0.6,0.4,1.3,0.7,1,1.6c-0.2,0.8-0.8,1.1-1.6,1.1c-5.4-0.2-10,1.9-14.3,4.8
			c-0.5,0.4-1.1,1.2-1.8,0.6c-0.6-0.5-0.2-1.3,0.1-2c0.9-2.2,1.8-4.3,2.9-6.8c-3.7,0-7.2,0-10.6,0c-14.5,0-29,0-43.5,0
			c-2.1,0-2.9,0.1-2.4,2.7c0.9,4.1,0,7.7-3.9,10.1c-2.8,1.7-5.3,1.6-6.9-0.4c-1.9-2.3-1.8-5.7,0.7-7.8c2.2-1.9,3.7-4,4.3-6.8
			c0.3-1.2,0.3-2.5,0.4-3.7c0.1-0.8,0-1.8,1-1.9c1-0.2,0.9,0.9,1.2,1.4c0.7,1.2,0.9,2.7,2,3.7c0.2,0.2,0.5,0.4,0.8,0.5
			c13.2,0.1,26.4,0.2,39.7,0C608.2,343.8,608.4,343.6,608.7,343.4z"/>
		<path class="st4" d="M536.7,477.2c-12.1-0.6-18.5-7.5-18.4-18.5c0.1-11.8,7.1-18.5,18.7-18.5c11.7,0,18.2,7.4,18.5,18.8
			C555.7,469.8,547.6,477.3,536.7,477.2z"/>
		<path class="st2" d="M495.4,477.2c-11.1-0.1-18.9-7.7-18.5-18.5c0.4-11.8,7.5-18.2,18.9-18.6c10.5-0.3,18.6,8.3,18.5,18.8
			C514.1,469.8,506.4,477.2,495.4,477.2z"/>
		<path class="st1" d="M746,477.2c-12.3-0.5-18.8-7.3-18.6-18.5c0.1-11.5,6.9-18.5,18.8-18.4c11.8,0.1,18.3,7.6,18.3,18.8
			C764.4,470.1,757.9,476.7,746,477.2z"/>
		<path class="st1" d="M626.8,477.2c-11.1,0-18.9-7.4-18.8-18.2c0.2-11.7,7.1-18.7,18.6-18.8c11.3-0.1,18.3,6.9,18.6,18.7
			C645.6,469.6,637.7,477.1,626.8,477.2z"/>
		<path class="st6" d="M821.1,476.6c-4.7,0-9.4,0-14.1,0c-0.5,0-1.4,0.3-1.4-0.6c0-0.7,0.8-0.6,1.2-0.7c2.8-0.3,3.5-2,3.5-4.6
			c-0.1-8-0.1-15.9,0-23.9c0-2.7-0.7-4.5-3.7-4.7c-0.5,0-1.2,0-1-0.8c0.1-0.7,0.7-0.6,1.3-0.6c9.4,0,18.7,0,28.1,0
			c1.1,0,1.4,0.5,1.4,1.4c0,2.7,0,5.3,0,8c0,0.5,0.1,1.1-0.7,1.2c-0.7,0.1-0.8-0.5-1-1c-2.4-6.5-7.2-9.1-13.9-7.5
			c-1.2,0.3-1.9,0.9-1.9,2.1c0,3.7,0,7.4,0,11.1c0,1.3,0.7,1.4,1.7,1.4c3.6,0,6-2.2,6.8-6.2c0.1-0.6-0.2-1.6,0.9-1.6
			c1.1,0,0.7,1,0.7,1.6c0,4.8,0,9.5,0,14.3c0,0.6,0.4,1.6-0.8,1.6c-0.9,0-0.7-0.8-0.8-1.4c-1-4.1-3.1-6.2-6.6-6.5
			c-1.3-0.1-1.9,0.1-1.9,1.6c0.1,3.6,0.1,7.3,0,10.9c-0.1,2.3,1,3.2,3.2,3.3c6.6,0.4,11.8-1.9,14.7-8.1c0.3-0.6,0.5-1.5,1.4-1.2
			c0.9,0.3,0.4,1.3,0.3,1.8c-0.4,2.5-1.1,5-1.4,7.5c-0.2,1.5-0.9,1.6-2.1,1.6C830.3,476.6,825.7,476.6,821.1,476.6
			C821.1,476.6,821.1,476.6,821.1,476.6z"/>
		<path class="st2" d="M1224.7,476.2c0.1-0.3,0.1-0.6,0.2-0.6c4.6-0.4,4.6-3.6,4.6-7.1c-0.1-7.3-0.1-14.7,0-22
			c0-2.4-0.8-4.1-3.5-4.4c-0.5-0.1-1.2,0.2-1.2-0.6c0-0.9,0.8-0.8,1.3-0.8c0.4,0,0.7,0,1.1,0c8.7,0,17.3,0,26-0.1
			c1.8,0,2.3,0.5,2.3,2.2c-0.1,2.4,0,4.8-0.1,7.2c0,0.5,0,1.1-0.7,1.2c-0.7,0.1-0.8-0.5-1-1c-2.6-6.5-6.6-8.7-13.6-7.5
			c-1.5,0.3-2.1,1-2.1,2.5c0.1,3.5,0.1,7.1,0,10.6c0,1.3,0.5,1.6,1.7,1.6c3.5-0.1,5.6-2,6.7-6c0.2-0.6-0.2-1.8,0.8-1.7
			c1.1,0.1,0.6,1.3,0.6,1.9c0.1,4.5,0,9,0,13.5c0,0.7,0.1,1.4-0.5,2.1c-1.2-0.6-0.9-1.9-1.2-2.7c-1-3-2.9-4.7-6-5.3
			c-1.3-0.2-2.2-0.1-2.1,1.6c0.1,3.7,0,7.4,0,11.1c0,1.9,0.9,2.7,2.7,2.9c6.8,0.8,11.7-1.8,15.1-7.9c0.3-0.6,0.5-1.8,1.5-1.4
			c1,0.4,0.4,1.3,0.2,2.1c-0.4,2-1.1,4-1.1,6c-0.1,2.7-1.4,3-3.7,3c-8.3-0.1-16.6,0-24.9-0.1
			C1226.6,476.6,1225.6,476.9,1224.7,476.2z"/>
		<path class="st6" d="M909.7,449.9c0,7.1-0.1,14.3,0,21.4c0,2.2,1.3,3.6,3.6,3.9c0.5,0.1,1.5-0.1,1.3,0.8c-0.1,0.9-1,0.5-1.5,0.5
			c-3.1,0-6.2,0-9.3,0c-0.4,0-1,0.2-1.1-0.4c-0.2-0.8,0.5-0.8,1-0.9c3.2-0.4,3.8-2.5,3.7-5.3c-0.1-6.8-0.2-13.6,0.1-20.4
			c0.1-3.3-1.1-5.3-3.5-7.1c-0.4-0.3-1.4-0.3-1-1.2c0.3-0.7,1-0.5,1.6-0.5c2.7,0,5.5,0.1,8.2,0c1.5-0.1,2,1,2.7,1.8
			c5.5,6.6,10.9,13.2,16.3,19.8c0.9-0.3,0.5-1.1,0.5-1.6c0.1-4.7,0.1-9.4,0.2-14c0-2.5-1.2-3.9-3.6-4.5c-0.5-0.1-1.4,0.2-1.3-0.8
			c0.1-0.9,0.9-0.6,1.5-0.7c2.7,0,5.5,0,8.2,0c0.6,0,1.4-0.2,1.6,0.6c0.2,1-0.7,0.8-1.2,1c-2.2,0.6-2.9,2.1-2.9,4.4
			c0.1,9.4,0.1,18.9,0.1,28.4c0,0.7,0.5,1.7-0.5,2.1c-1,0.4-1.6-0.5-2.1-1.2c-3.7-4.4-7.4-8.8-11-13.2c-3.6-4.3-7.2-8.6-10.8-12.9
			C910.2,449.8,910,449.9,909.7,449.9z"/>
		<path class="st7" d="M1034.5,450c0,6.9,0,13.8,0,20.7c0,2.5,1,4.3,3.7,4.6c0.5,0.1,1.2,0,1.2,0.7c0,1-0.9,0.6-1.4,0.7
			c-3.5,0-7,0-10.4,0c-0.2-0.9,0.1-1.1,0.6-1.3c3.8-1.2,4-1.4,4-5.3c0-6.7-0.2-13.4,0.1-20.1c0.1-3.3-0.8-5.6-3.4-7.4
			c-0.5-0.3-1.3-0.5-1-1.3c0.3-0.8,1.1-0.4,1.6-0.5c0.3,0,0.5,0,0.8,0c6.2-1,10.6,1.1,14.1,6.5c3,4.6,6.9,8.7,10.5,13
			c0.6,0.7,1.1,1.6,2.3,2.1c0.4-5.7,0.5-11.2,0.1-16.7c-0.1-2.2-1.7-3.2-3.8-3.5c-0.5-0.1-1.2,0-1.1-0.8c0.1-0.8,0.7-0.7,1.2-0.7
			c3,0,6,0,9,0c0.5,0,1.1,0,1.2,0.7c0.1,0.8-0.6,0.7-1.1,0.8c-2.3,0.6-3.1,2-3.1,4.5c0.2,9.4,0.1,18.7,0.1,28.1
			c0,0.8,0.6,1.9-0.5,2.3c-1.2,0.4-1.7-0.7-2.3-1.4c-6.8-8.1-13.6-16.2-20.4-24.4c-0.4-0.5-0.9-1-1.3-1.5
			C1034.9,449.9,1034.7,449.9,1034.5,450z"/>
		<path class="st7" d="M1213.3,461.4c2.6,0,5.1,0,7.7,0c0.6,0,1.4-0.2,1.4,0.7c0,0.7-0.7,0.6-1.2,0.7c-2.7,0.3-3.6,1.9-3.4,4.4
			c0.1,1.1-0.2,2.3,0.1,3.4c0.7,3.3-1,4.6-3.9,5.2c-4.6,1-9.2,1.7-13.9,1.1c-13.5-1.7-17.4-13.5-15-23c2.7-10.4,12.5-16,22.9-12.9
			c1,0.3,2,0.7,3,1c1.8,0.6,3.7,1.2,4.6-1.3c0.2-0.6,0.8-0.7,1.3-0.5c0.6,0.2,0.4,0.7,0.4,1.1c0,3.4,0,6.7,0,10.1
			c0,0.5,0.2,1.1-0.5,1.3c-0.6,0.1-0.9-0.3-1.2-0.8c-0.7-1.2-1.4-2.5-2.2-3.6c-1.2-1.8-2.6-3.3-4.4-4.5c-5.5-3.6-11.7-1.8-13.7,4.4
			c-2.2,7.1-2.2,14.5,0.2,21.6c1.7,4.9,6.5,7.2,11.3,5.9c1.7-0.5,2.8-1.5,2.7-3.4c0-1.8-0.1-3.5,0-5.3c0.2-2.7-1.1-3.9-3.7-4
			c-0.6,0-1.7,0.3-1.6-0.8c0.1-1,1.1-0.6,1.7-0.7C1208.4,461.4,1210.8,461.4,1213.3,461.4C1213.3,461.4,1213.3,461.4,1213.3,461.4z"
		/>
		<path class="st4" d="M891.6,461.4c2.6,0,5.1,0,7.7,0c0.5,0,1.2-0.1,1.2,0.7c0,0.8-0.7,0.7-1.1,0.7c-2.6,0.2-3.4,1.9-3.4,4.2
			c0,1.2-0.1,2.5,0.1,3.7c0.5,3.1-0.8,4.4-3.7,5.1c-4.9,1.1-9.7,1.7-14.7,1.1c-12.4-1.7-16.5-13-14.6-22.2
			c2.4-11.8,15.2-17.2,24.2-13.3c0.7,0.3,1.5,0.5,2.3,0.8c1.7,0.6,3.3,0.9,4.2-1.3c0.2-0.5,0.7-0.9,1.3-0.6c0.5,0.2,0.4,0.7,0.4,1.1
			c0,3.4,0,6.7,0,10.1c0,0.4,0.1,0.9-0.4,1.1c-0.7,0.2-1-0.4-1.2-0.8c-1.2-2.3-2.5-4.5-4.4-6.3c-3.7-3.7-8.5-4.6-12.2-2.3
			c-1.9,1.2-3.1,2.9-3.7,5c-2.1,7.2-2.2,14.5,0.3,21.6c1.7,4.7,5.9,6.8,10.8,5.9c2.1-0.4,3.3-1.6,3.2-3.8c0-1.6,0-3.2,0-4.8
			c0-3.1-0.6-3.7-3.8-4.2c-0.5-0.1-1.5,0.3-1.4-0.6c0-1.1,1-0.7,1.7-0.7C886.6,461.4,889.1,461.4,891.6,461.4
			C891.6,461.4,891.6,461.4,891.6,461.4z"/>
		<path class="st5" d="M1095.8,461.5c2.6,0,5.1,0,7.7,0c0.5,0,1.2-0.1,1.2,0.6c0.1,0.8-0.6,0.7-1.1,0.7c-2.8,0.2-3.5,2-3.5,4.4
			c0,1.1,0,2.3,0,3.4c0,4.1,0,4.2-3.8,5.2c-4.7,1.2-9.5,1.7-14.4,1c-12.7-1.8-16.7-13.3-14.4-23c2.6-11.2,15.3-16.1,23.3-12.7
			c1.1,0.4,2.2,0.7,3.3,1.1c1.7,0.6,3.2,0.7,3.9-1.4c0.2-0.6,0.7-0.8,1.2-0.6c0.6,0.2,0.5,0.7,0.5,1.1c0,3.4,0,6.7,0,10.1
			c0,0.5,0.2,1.2-0.6,1.2c-0.6,0.1-0.9-0.5-1.1-1c-0.9-1.8-2-3.5-3.4-5.1c-1.3-1.6-2.8-2.9-4.7-3.7c-5.2-2.3-10.2-0.4-12,5
			c-2.4,7.3-2.3,14.6,0.1,21.9c1.6,4.7,5.9,6.9,10.8,6c0.3-0.1,0.7-0.1,1-0.2c4.2-2.3,1.8-6.2,2.2-9.3c0.3-2.1-1.5-3-3.4-3.2
			c-0.6-0.1-1.7,0.4-1.7-0.6c0-1.2,1.2-0.8,1.9-0.8C1091,461.4,1093.4,461.4,1095.8,461.5C1095.8,461.4,1095.8,461.4,1095.8,461.5z"
		/>
		<path class="st1" d="M457.1,347.7c1.7,0,3.3-0.1,4.9,0c2.3,0.1,4.3,0,5.6-2.4c0.7-1.3,1.8-1.4,3.2-0.8c1.7,0.7,3.3,1.7,4.8,2.8
			c1.4,1.1,3.3,2.1,0.6,3.9c-0.5,0.4-0.5,1.1-0.5,1.7c0,10.1,0,20.2,0,30.5c2.6-0.9,4.5-2.7,6.7-3.9c0.6-0.3,1.1-1.5,1.9-0.6
			c0.6,0.7-0.2,1.3-0.5,1.9c-3.5,6-7.8,11.4-11.5,17.1c-0.9,1.3-1.7,1-2.4-0.1c-1.3-2.3-2.6-4.6-3.9-6.9c-0.4-0.6-0.4-1.3,0-2
			c1.3-2,1.4-4.3,1.4-6.6c0-10.1-0.1-20.2,0-30.2c0-2-0.6-2.7-2.6-2.5c-1.8,0.2-3.5,0-5.3,0C458.4,349.5,457.4,349.3,457.1,347.7z"
		/>
		<path class="st2" d="M667.5,476.3c-6.6,0-12.9,0-19.2,0c-0.2-0.6,0.1-0.8,0.5-0.9c4.2-1.3,4.2-1.3,4.2-5.6c0-7.6,0-15.2,0-22.8
			c0-3.5-0.4-4-3.8-4.9c-0.5-0.1-1.2,0-1-0.8c0.1-0.6,0.8-0.6,1.3-0.6c1.9,0,3.9,0,5.8,0c6.6,0,13.3,0.1,19.9-0.1
			c2.7-0.1,3.4,0.8,3.1,3.3c-0.2,2,0,4.1-0.1,6.1c0,0.5,0.1,1.2-0.6,1.2c-0.5,0-0.7-0.5-0.8-0.9c-2.7-6.5-5.9-8.4-12.8-7.6
			c-1.7,0.2-2.5,0.9-2.5,2.7c0.1,3.4,0.1,6.9,0.1,10.3c0,1.5,0.6,1.8,1.9,1.6c3.2-0.4,5-2.2,5.8-6c0.1-0.7-0.1-1.9,1.1-1.8
			c1.2,0.1,0.8,1.2,0.8,1.9c0,4.6,0,9.2,0,13.8c0,0.7,0.4,1.8-0.9,1.8c-0.9,0-0.8-1-0.9-1.7c-0.9-3.8-2.8-5.7-6-6.2
			c-1.2-0.2-1.8,0.1-1.8,1.5c0,3.7-0.1,7.4-0.1,11.1c0,1.9,1,2.8,2.8,3.3C665.2,475.3,666.4,475,667.5,476.3z"/>
		<path class="st6" d="M713.1,476.3c-6.7,0-13,0-19.3,0c-0.2-0.7,0.2-0.8,0.7-1c4-1.1,4-1.2,4-5.2c0-8,0-15.9,0-23.9
			c0-2.4-0.9-3.9-3.4-4.2c-0.5-0.1-1.5,0.2-1.4-0.7c0.1-1.1,1.1-0.7,1.7-0.7c6.9,0,13.8,0,20.7,0c2,0,4.1,0,6.1,0
			c1,0,1.7,0.2,1.6,1.5c-0.1,2.7,0,5.3,0,8c0,0.4,0.1,1-0.5,1.1c-0.7,0.1-0.8-0.5-1-1c-2.5-6.3-6.1-8.4-12.9-7.5
			c-1.6,0.2-2.4,0.9-2.4,2.6c0,3.4,0.1,6.9,0,10.3c0,1.7,0.7,1.9,2.1,1.7c3.1-0.5,4.9-2.3,5.6-5.8c0.2-0.7-0.1-1.9,1-1.9
			c1.2,0,0.8,1.2,0.8,1.9c0,4.6,0.1,9.2,0,13.8c0,0.7,0.4,1.9-0.8,1.9c-0.9,0-0.8-1-0.9-1.7c-0.8-3.7-2.9-5.8-6-6.2
			c-1.2-0.2-1.8,0.1-1.8,1.5c0,3.7,0,7.4,0,11.1c0,1.8,1,2.7,2.6,3.2C710.7,475.4,711.9,475,713.1,476.3z"/>
		<path class="st6" d="M1111.2,455.8c0-3,0-6,0-9c0.1-2.5-0.5-4.4-3.4-4.7c-0.5,0-0.9-0.1-0.8-0.7c0-0.6,0.5-0.7,0.9-0.7
			c5.3,0,10.6,0,15.9,0c0.5,0,1.1,0.1,1,0.8c-0.1,0.6-0.6,0.5-1,0.5c-3.6,0.8-4.1,1.4-4.1,5.2c0,6,0,12,0,18c0,1.1,0.1,2.1,0.3,3.2
			c0.7,4.1,2.5,6.1,5.8,6.5c4.4,0.6,8.2-1.3,9.7-4.8c0.7-1.6,1-3.2,1-4.9c0-6.1,0-12.2,0.1-18.3c0-2.8-1.1-4.6-4.1-4.9
			c-0.5-0.1-1.2,0-1-0.8c0.1-0.5,0.5-0.6,1-0.6c3.1,0,6.2,0,9.3,0c0.5,0,1.1,0,1.1,0.8c0,0.6-0.5,0.6-0.9,0.7
			c-2.5,0.5-3,2.2-3.1,4.5c-0.1,6.5,0.4,12.9-0.2,19.4c-0.6,7.2-4.2,10.6-11.4,11.1c-2.5,0.2-5,0-7.4-0.6c-5.7-1.4-8.3-4.2-8.7-10.1
			c-0.3-3.5,0-7.1,0-10.6C1111.4,455.8,1111.3,455.8,1111.2,455.8z"/>
		<path class="st2" d="M367.8,470.9c0-1.8,0-3.5,0-5.3c0-0.4-0.2-0.9,0.5-1.1c0.6-0.1,1,0.1,1.2,0.7c0.5,1.3,0.9,2.7,1.4,4
			c2.1,4.6,5.8,6.9,10.5,6.4c2.8-0.3,4.7-1.8,5.3-4.4c0.6-2.6-0.2-4.8-2.6-6.1c-2.8-1.5-5.6-2.9-8.5-4.4c-6-3.1-8.2-7-7.1-12.4
			c1.3-6.4,7.3-9.8,14.3-8.1c1.3,0.3,2.5,0.8,3.8,1.1c1.2,0.3,2.4,0.7,3.2-0.9c0.3-0.6,0.8-0.7,1.3-0.5c0.7,0.2,0.5,0.8,0.5,1.3
			c0,2.8,0,5.7,0,8.5c0,0.6,0.2,1.3-0.8,1.4c-0.9,0.1-0.9-0.7-1.1-1.2c-0.9-2-1.8-4-3.5-5.6c-2.3-2.2-5-3.3-8.2-2.6
			c-2.1,0.5-3.5,1.7-3.9,3.8c-0.4,2.2,0.2,4,2.1,5.3c3.2,2.2,6.9,3.5,10.3,5.3c7.5,4,8.8,13.2,2.4,18.1c-3.8,3-8.4,2.9-12.9,2.4
			c-1.3-0.1-2.6-0.6-3.9-0.8c-0.7-0.1-1.5-0.5-2.1,0c-3.2,2.7-2.2-0.4-2.4-1.7C367.7,473.3,367.8,472.1,367.8,470.9
			C367.8,470.9,367.8,470.9,367.8,470.9z"/>
		<path class="st4" d="M1260.8,471c0-1.8,0-3.5,0-5.3c0-0.4-0.1-0.9,0.5-1c0.7-0.1,0.9,0.2,1.1,0.8c0.6,1.8,1.2,3.7,2.2,5.4
			c2.3,3.7,5.5,5.3,9.8,4.9c2.7-0.3,4.4-1.6,5.1-4.2c0.7-2.7-0.1-4.8-2.4-6.1c-2.9-1.7-6-3-8.9-4.6c-5.9-3.2-8-7.3-6.6-12.9
			c1.5-5.8,7.4-9,14.1-7.5c1.2,0.3,2.4,0.7,3.5,1c1.4,0.4,2.8,0.9,3.6-0.8c0.3-0.6,0.9-0.6,1.4-0.4c0.5,0.2,0.4,0.7,0.4,1.1
			c0,2.9,0,5.8,0,8.8c0,0.5,0.1,1.1-0.6,1.3c-0.8,0.2-1.1-0.4-1.4-1c-0.7-1.8-1.5-3.6-2.8-5c-2.4-2.7-5.2-4.2-8.9-3.3
			c-1.9,0.5-3.3,1.6-3.8,3.6c-0.4,2.2,0,4,1.9,5.4c3,2.2,6.5,3.5,9.9,5.1c5.9,2.9,8.5,8.6,6.2,14.2c-1.9,4.8-6,6.4-10.7,6.9
			c-2.6,0.2-5.1-0.1-7.6-0.5c-1.6-0.3-3.2-1.4-4.8,0.5c-0.5,0.6-1.2-0.2-1.2-1C1260.8,474.3,1260.8,472.6,1260.8,471z"/>
		<path class="st8" d="M705.1,334.9c-2.7-1.9-3.1-4.2-3.3-6.6c-0.4-3.6-1.5-6.8-4.7-9.2c4.9,0,9.4,0.9,13.1,4
			c4.1,3.4,3.9,8.8-1.7,11.8c6,0,11.2,0,16.4,0c1.1,0,1.2-1.2,1.6-1.9c1-1.6,2.2-1.9,3.7-0.7c2.7,2.2,5.3,4.4,7.9,6.6
			c0.7,0.5,1,1.1,0.6,2c-0.4,1-1.2,1.2-1.9,0.9c-4.4-1.6-8.2,0.1-12,2.2c-0.4,0.2-0.9,0.6-1.4,0c-0.4-0.5-0.1-1,0.1-1.5
			c0.4-0.9,0.8-1.8,1.1-2.7c1.3-3.2,1.3-3.2-2-3.2c-10,0-20,0-29.9-0.1c-1.9,0-2.8,0.3-2.9,2.5c-0.1,2.6-1,5-3.3,6.6
			c-2.3,1.5-6,1-7.5-1c-1.2-1.7-0.6-4.5,1.6-6.3c3-2.5,5.3-5.4,6-9.5c1.8,1.3,2.2,3.1,2.8,4.6c0.4,0.9,0.7,1.5,1.8,1.5
			C695.7,334.9,700,334.9,705.1,334.9z"/>
		<path class="st4" d="M1180.6,476.4c-5.6,0-11.2,0-16.8,0c-0.2-1.1,0.5-0.9,1-1.1c3.5-0.9,3.7-1.1,2.4-4.7
			c-1.6-4.5-1.6-4.5-6.2-4.4c-0.9,0-1.8,0-2.7,0c-5.2,0-5.1,0-6.8,4.8c-0.8,2.3-0.2,3.5,2.2,4c0.6,0.1,1.2,0.2,1.6,0.8
			c-0.1,1-0.9,0.7-1.4,0.7c-1.7,0.1-3.4,0.1-5,0c-1.4-0.1-3.4,0.7-3.9-0.4c-0.6-1.2,1.7-1.1,2.4-2.1c0.9-1.2,1.5-2.4,2-3.7
			c3.7-9.2,7.4-18.5,11.2-27.7c0.4-1,0.3-2.6,1.8-2.6c1.7-0.1,1.5,1.7,2,2.7c4,9.3,7.9,18.7,11.9,28c0.9,2.2,1.8,4.4,4.7,5
			C1180.8,476,1180.7,476.2,1180.6,476.4z"/>
		<path class="st5" d="M1025,476.4c-5.7,0-11.5,0-17.2,0c0.1-1.2,0.9-0.9,1.4-1c3.2-0.8,3.4-1.2,2.3-4.4c-2.1-5.8-1.3-4.6-6.5-4.7
			c-0.9,0-1.8,0-2.6,0c-4.7,0-6,1.2-6.8,5.9c-0.4,2.2,1,2.7,2.7,3.1c0.5,0.1,1.4,0,1.4,0.9c-0.1,0.9-1,0.5-1.5,0.6c-3,0-6,0-9.2-0.4
			c3.9-1.9,4.6-5.6,5.9-8.9c3.4-8.4,6.8-16.8,10.2-25.2c0.3-0.8,0.2-2.1,1.6-2.1c1.5,0,1.4,1.4,1.8,2.3c3.9,9.1,7.7,18.2,11.5,27.3
			C1021,472.2,1022,475,1025,476.4z"/>
		<path class="st4" d="M954.3,476.1c0.4-0.9,1.2-0.8,1.9-0.9c1.9-0.4,2.7-1.6,2.7-3.4c0-8.7,0-17.3,0-26c0-2.2-1.4-3.3-3.4-3.7
			c-0.5-0.1-1.2,0-1.1-0.8c0.1-0.7,0.7-0.7,1.2-0.7c5.3,0,10.6,0,15.9,0c0.5,0,1.2,0,1.2,0.7c0,0.8-0.6,0.6-1.1,0.7
			c-3.5,0.6-4.1,1.4-4.1,4.9c0,8.2,0.1,16.4,0,24.6c0,2.4,1,3.3,3.2,3.4c6.9,0.4,11.2-2.1,14.2-8.4c0.2-0.5,0.5-0.9,0.6-1.4
			c0.2-0.5,0.5-0.7,1-0.6c0.8,0.1,0.6,0.8,0.6,1.2c-0.5,3.2-1.1,6.4-1.7,9.6c-0.1,0.8-0.5,1.2-1.4,1.2c-9.8-0.1-19.6-0.1-29.4-0.2
			C954.5,476.4,954.4,476.3,954.3,476.1z"/>
		<path class="st4" d="M558.8,475.7c0.1-0.4,0.7-0.4,1.2-0.5c2.4-0.4,3.1-1.9,3.1-4.2c-0.1-8.2-0.1-16.4,0-24.7
			c0-2.3-0.9-3.7-3.1-4.2c-0.5-0.1-1.4,0.1-1.3-0.9c0.1-0.7,0.8-0.6,1.3-0.6c5.2,0,10.4,0,15.6,0c0.5,0,1.2,0,1.3,0.6
			c0.1,0.8-0.6,0.6-1.1,0.7c-3.6,0.7-4.2,1.4-4.2,5.1c0,8,0,16.1,0,24.1c0,2.9,0.7,3.6,3.5,3.7c7,0.3,10.9-2.2,14-8.6
			c0.3-0.7,0.3-2.1,1.5-1.7c1.1,0.4,0.5,1.5,0.3,2.3c-0.4,2.7-1,5.4-1.4,8.1c-0.2,1.2-0.6,1.7-1.8,1.7c-9.5,0-18.9,0-28.4-0.1
			C559.2,476.6,558.8,476.6,558.8,475.7z"/>
		<path class="st5" d="M430.9,446.3c0,1.6,0,3.2,0,4.8c0,0.5,0.3,1.3-0.6,1.5c-0.8,0.1-0.9-0.6-1.2-1.1c-1.1-1.8-2.1-3.7-3.5-5.2
			c-2.9-3.1-6.2-5.1-10.5-4c-4.1,1-5.7,4.4-6.6,8.2c-1.1,5-1.3,10.2-0.4,15.3c1.7,9,9.8,12.3,17.4,7.2c1.5-1,2.7-2.2,4-3.4
			c0.6-0.5,1-0.9,1.8-0.3c0.9,0.8,0.1,1.2-0.3,1.7c-5,6.1-14.6,8.1-22.6,4.7c-7-3-10.8-10.2-9.9-18.4c1.1-11,7.7-15.7,16.5-17
			c3.1-0.5,5.9,0.6,8.8,1.5c2.1,0.7,4.4,2.2,5.7-1.2c0.2-0.5,0.7-0.4,1.1-0.3c0.5,0.2,0.4,0.7,0.4,1.1
			C431,443,430.9,444.6,430.9,446.3z"/>
		<path class="st5" d="M850.2,476.6c-2.7,0-5.3,0-8,0c-0.4,0-1,0.2-1.1-0.4c-0.2-0.8,0.5-0.9,1-0.9c3.4-0.4,3.9-2.5,3.9-5.5
			c-0.1-7.5-0.1-15,0-22.5c0-2.9-0.8-4.8-4-5.1c-0.4,0-0.9,0-0.9-0.7c0-0.7,0.5-0.8,1.1-0.8c5.4,0,10.8,0,16.2,0
			c0.5,0,1.1,0,1.2,0.7c0.1,0.8-0.5,0.7-1,0.8c-3.9,1-4.1,1.3-4.1,5.2c0,7.6,0,15.2,0,22.8c0,4,0.1,4.2,4,5.2c0.5,0.1,1.2,0,1,0.8
			c-0.1,0.6-0.7,0.4-1.1,0.4C855.7,476.6,853,476.6,850.2,476.6C850.2,476.6,850.2,476.6,850.2,476.6z"/>
		<path class="st3" d="M420.2,346.8c9.2,4.2,17.7,8.3,21.9,18c0.6,1.4,0.6,2.9,0.5,4.4c-0.3,3.2-2.8,6-5.5,6.3
			c-2.6,0.3-4.7-1.3-5.9-4.7c-0.6-1.7-0.9-3.6-1.3-5.4c-1.2-6.5-4-12-8.7-16.6C420.8,348.4,420.3,348.1,420.2,346.8z"/>
		<path class="st9" d="M577.9,342.5c-2.8-1.1-3.6-3.8-3.5-6.2c0.2-5.7-2.1-10.2-5.5-14.4c-0.2-0.2-0.3-0.6-0.5-1
			c0.6-0.1,1.1-0.3,1.4-0.2c5.3,1.9,10.3,4.2,13.7,8.9c3.7,5,2.6,10.3-2.4,12.9C580.1,343.1,579,343,577.9,342.5z"/>
		<path class="st1" d="M604.6,333.3c0,3.7-2.6,6.3-5.9,6.4c-2.8,0.1-4.7-2.1-4.9-5.8c-0.2-5.2-1.4-10.1-5.1-14.1
			c-0.4-0.4-1-0.9-0.6-1.6c0.3-0.4,0.8-0.3,1.2-0.1c5.9,2.4,11.4,5.2,14.3,11.3C604.2,330.8,604.7,332.1,604.6,333.3z"/>
		<path class="st10" d="M468.3,328.3c0-2.4-1.7-4.9-3.6-7.3c-0.4-0.5-1.3-1-0.8-1.7c0.4-0.7,1.3-0.3,2-0.2c4.7,0.9,9.1,2.3,11.7,6.8
			c1.6,2.8,1.1,5.8-1.2,7.6c-1.7,1.3-3.8,2.2-5.9,1.1C468.3,333.4,467.8,331.4,468.3,328.3z"/>
		<path class="st11" d="M687.2,349.4c7.8,0,15.4-0.1,23.1,0c2.1,0,3.5-0.5,4.9-2.2c4.1-5.1,4.2-5,9-0.5c0.7,0.7,1.4,1.3,2,2.1
			c0.5,0.7,1.6,1.2,1.2,2.2c-0.4,1.1-1.6,0.6-2.4,0.6c-9,0-18,0-27,0c-2.6,0-5.3,0-7.9,0C688.7,351.6,687.8,351,687.2,349.4z"/>
		<path class="st12" d="M577.9,342.5c1.1,0,2.1,0,3.2-0.1c-0.4,1.9,1.1,0.9,1.7,0.9c8.6,0.1,17.3,0.1,25.9,0.1c0,0.2,0,0.3-0.1,0.5
			c-0.6,0.4-1.2,0.3-1.8,0.3c-12.5,0-25.1,0-37.6,0c-0.6,0-1.2,0.2-1.8-0.3c-0.1-0.2-0.1-0.3,0-0.5c3.1,0,6.3,0,9.4,0
			C577.3,343.4,578.4,343.9,577.9,342.5z"/>
		<path class="st13" d="M385.8,367.3c-0.4,1.4-1,2.7-1.9,3.8c-0.4,0-0.8,0-1.2,0c2-2.1,2.5-4.6,2.2-7.4
			C386.9,364.4,384.9,366.2,385.8,367.3z"/>
		<path class="st14" d="M385.8,367.3c-0.9-1.1,0.3-2.7-0.9-3.7c-1.7-4.1-1.7-4.1-11.2-8.8c2.5-4,5.1-8,7.1-12.4
			c0.4-1,1.1-1.2,2.1-1.2c2.6,0.1,5.1,0.1,7.7,0c1.4,0,1.9,0.3,1.7,1.8c-1.2,7.6-2.3,15.3-5.9,22.3
			C386,365.9,385.9,366.6,385.8,367.3z"/>
		<path class="st15" d="M508.4,359.9c-1.1,0-2.3,0-3.4,0c-3.3,0-3.3,0-2.8-3.1c0.7-3.8,1.4-7.6,2.1-11.4c0.2-1.4,0.8-2.1,2.4-2
			c2.9,0.2,5.8,0.1,8.7,0c1.3,0,1.7,0.4,1.5,1.7c-0.6,4.5-1.1,9.1-1.6,13.6c-0.1,1.1-0.8,1.2-1.6,1.2
			C511.9,359.8,510.1,359.9,508.4,359.9z"/>
		<path class="st16" d="M781.3,450.9c0-1.9,0-3.9,0-5.8c0-1.5,0.6-2.3,2.2-2.4c2.6-0.2,5,0.2,6.5,2.6c1.6,2.6,1.6,8.2-0.1,10.4
			c-1.9,2.4-4.6,2.7-7.4,2.7c-1.2,0-1.1-0.9-1.1-1.7C781.3,454.8,781.3,452.8,781.3,450.9C781.3,450.9,781.3,450.9,781.3,450.9z"/>
		<path class="st14" d="M508.8,392.3c-3.4,0-6.7-0.1-10.1,0c-1.4,0-2-0.3-2-1.9c0.1-4.9,0.1-9.9,0-14.8c0-1.5,0.5-1.9,2-1.9
			c6.7,0.1,13.4,0.1,20.1,0c1.4,0,1.8,0.4,1.8,1.8c-0.1,5-0.1,10.1,0,15.1c0,1.4-0.4,1.8-1.8,1.8
			C515.5,392.3,512.1,392.3,508.8,392.3z"/>
		<path class="st17" d="M567.4,343.9c13.7,0,27.5,0,41.2,0c-0.7,0.9-1.6,0.5-2.5,0.5c-12.1,0-24.2,0-36.3,0
			C569,344.5,568,344.9,567.4,343.9z"/>
		<path class="st18" d="M546.2,458.2c0,5.1-0.4,8.9-1.9,12.4c-1.5,3.3-3.9,5.2-7.6,5.1c-3.7,0-6.1-2.1-7.5-5.3
			c-2.1-5.2-2-10.7-1.5-16.1c0.2-2.5,0.7-4.9,1.8-7.1c1.5-3.2,4-5.3,7.6-5.2c3.5,0.1,5.8,2.3,7.1,5.4
			C545.9,451.2,546.2,455.3,546.2,458.2z"/>
		<path class="st18" d="M504.9,458.7c-0.1,4.7-0.4,8.3-1.9,11.8c-1.4,3.3-3.7,5.3-7.5,5.2c-3.7,0-6.3-1.9-7.5-5.2
			c-2.7-7.7-2.7-15.6,0.2-23.3c1.3-3.3,3.9-5.3,7.5-5.3c3.7,0,5.9,2.3,7.3,5.5C504.6,451.3,504.8,455.5,504.9,458.7z"/>
		<path class="st18" d="M755.3,459.2c-0.1,4-0.3,7.9-2,11.6c-1.5,3.2-3.8,5-7.4,4.9c-3.7,0-6.1-2-7.5-5.3c-2.1-5.2-2-10.7-1.6-16.2
			c0.2-2.5,0.7-4.9,1.8-7.1c1.5-3.2,3.9-5.3,7.6-5.3c3.5,0.1,5.8,2.2,7.1,5.4C754.9,451.1,755.2,455.1,755.3,459.2z"/>
		<path class="st18" d="M617.2,458.4c0.1-3.5,0.4-7.5,2.1-11.2c1.5-3.2,3.8-5.3,7.5-5.3c3.7,0,6.1,2.3,7.3,5.6
			c2.7,7.4,2.9,15,0.2,22.5c-1.3,3.8-3.9,5.7-7.4,5.7c-3.7,0.1-6.3-1.7-7.9-5.5C617.5,466.6,617.2,462.7,617.2,458.4z"/>
		<path class="st19" d="M1159.2,451.4c1.7,4,3.1,7.5,4.6,11c0.5,1.2,0.4,1.8-1.1,1.7c-2.2-0.1-4.4,0-6.6,0c-1.3,0-1.5-0.5-1.1-1.7
			C1156.3,458.9,1157.7,455.4,1159.2,451.4z"/>
		<path class="st20" d="M998.7,464c1.6-4.1,3-8,4.8-12.6c1.9,4.6,3.5,8.5,5.2,12.6C1005.2,464,1002.1,464,998.7,464z"/>
	</g>
		<g>
		<path class="st21" d="M250.2,372.6c0,0,7.6-31.3-7.7-22.4c-15.3,8.9-32.9,39.1-33.6,42.7c-0.7,3.6-6,12.8,13.2,12.5
			s26.3-10.7,26.3-10.7s-11.8,4.3-19.1,4.3c-7.3,0-13.7-1.5-8-13.3C227.1,373.9,249.5,349.1,250.2,372.6z"/>
			<path class="st21" d="M222.7,354.8c0,0-4-24.1-17.9-34.9c0,0-18.4,14.2-23.2,32.9c0,0-20.3-11.1-30.6-9.9c0,0-3.3,23.2,12.9,47.1
			c0,0-16.4-0.1-21.6,2.9c0,0,9.8,0.5,16,4.1c3.4,2,11.8,3.8,16,2.8c3.5-0.8,3.5-4.5,1.5-5.8c-8.5-5.6-12.1-13.8-11.8-34.5
			c0,0,9.7-1.5,15.6,2c0,0-2.8,15.6,5.7,28.9c0,0,0-19.8,3-24.7c0,0,9.9,6,17.4,13.8c0,0-2.9-10.4-15.4-19.5c0,0,8.6-20.8,15.2-24
			C205.6,336,216.8,342.6,222.7,354.8z"/>
			<path class="st21" d="M135.6,394.7c-10.2-2.5-18.2,3.6-17.5,12.4c0.6,8.3,8.7,10.2,8.7,10.2s-6.4,13.4,5.2,15.8
			c14.1,2.9,17.4-11.1,17.4-11.1s-9.7,9.5-15.8,5.6c-6.7-4.4,0.1-13.2,0.1-13.2s-6.5,0.7-7.5-4.2C125.2,405.2,129.3,399,135.6,394.7
			z"/>
			<path class="st21" d="M157.8,426.6c-8.2,3-16.2,21.6-4.1,29.6c19.1,12.6,30.4-9.9,30.4-9.9s-14.2,13.2-24.7,4.4
			C150.9,443.7,152.5,436.6,157.8,426.6z"/>
			<path class="st21" d="M188.4,441.6c0,0,5.2-6.9,13.9-7.2s13,5.3,16.3,8.9c3,3.2,9.1,10.7,20.4,6.5c11.4-4.2,11-22.4,11-22.4
			s5.3,21.2-7.7,27.7c-7.1,3.6-15.2,1.7-22.3-6.6s-9.4-9-17.2-9.7S188.4,441.6,188.4,441.6z"/>
			<path class="st21" d="M255.5,392.8c0,0,20-5,28,8.4c8.7,14.6-3.2,24.1-11.3,26.8c-8.1,2.7-18-3-18-3s22.5,4.5,24.3-13.4
			C280.1,393.6,255.5,392.8,255.5,392.8z"/>
			<path class="st21" d="M196.1,356.4c0,0,0.9-4.6,2.4-0.3c1.5,4.2,2.2,11.8,1.9,13.3c-0.3,1.5-1.9,0.2-2.2-1
			C197.8,367.1,196.1,356.4,196.1,356.4z"/>
			<path class="st21" d="M224,357.1c1.5,1.1,1.8,4.3,0.5,6.5c-0.8,1.4-2.4,1.6-2.9,2.2c-0.5,0.6-0.8,3.7-2,4.9
			c-1.2,1.2-2.5,1.7-3.2,1.9c-0.8,0.2-1.7-1-0.3-2.1c1.4-1.1,1.7-0.5,2.4-1.7c0.7-1.2-0.5-3.8,0.4-4.7c0.9-0.9,3-0.7,3.6-1.8
			c1.2-2.3-0.5-3.4-2.4-3.4c-1.9,0-1.4-1.7-0.7-1.9C220.1,356.7,222.5,356,224,357.1z"/>
			<path class="st21" d="M215.9,353.2c-2.2-1.1-4.8,0.1-5.6,2.5c-1.8,4.9,2.5,6,2.5,6c0.3,0.9-0.5,4.2-1.9,6.1
			c-2.2,3.1-0.6,3.4,0.6,2.5c1.6-1.1,4.9-6,6.3-10C219.1,356.6,218.4,354.5,215.9,353.2z M215.5,358.9c-0.5,0.5-1.5,0.4-2.2-0.3
			c-0.7-0.7-0.9-1.8-0.5-2.3c0.5-0.5,1.5-0.4,2.2,0.3S216,358.3,215.5,358.9z"/>
			<path class="st21" d="M205,350.9c-2.4-0.3-4.6,1.5-4.7,3.9c-0.3,4.9,3.6,4.9,3.6,4.9c0.5,0.7,0.5,3.9,0.4,5.7
			c-0.2,3.6,1.2,3.2,1.6,2.5c0.7-1.2,2.3-6.4,2.7-10.7C208.9,353.2,207.7,351.3,205,350.9z M204.4,357.1c-1.1-0.2-1.8-0.8-1.7-1.5
			s1-1.1,2.1-0.9c1.1,0.2,1.8,0.8,1.7,1.5C206.4,356.8,205.4,357.2,204.4,357.1z"/>
			<g>
			<path class="st21" d="M152.4,414.6c3.5-1.1,5.9-2.2,7.1-3.3c0.6-0.6,1.1-0.6,1.5-0.3c0.7,0.6,0.8,1.1,0.1,1.7
				c-1.4,1-1.6,1.4-0.8,1.3c0.4,0,0.9,0,1.5,0c1.2,0.3,1.5,1.1,0.7,2.4c-2,2-4.4,4-7.4,6.2c-1.8,0.9-3.2,0.8-4.1-0.3
				c-0.2-0.4-0.1-0.7,0.4-0.8c5.3-2.1,8.3-4,8.9-5.6c-0.2-1-0.9-1.4-2.2-1.1c-0.6,0.2-1.6,0.6-2.9,1.2c-0.4,0.1-0.8,0.2-1,0.4
				c-1.1,0.4-1.8,0.1-2.1-0.9C151.9,414.9,152,414.7,152.4,414.6z M158,417.8c-0.9,0-1.7-0.1-2.4-0.4c-0.6-0.2-0.7-0.5-0.5-1
				c0.3-0.4,0.7-0.5,1.3-0.3c1,0.4,1.7,0.8,2.1,1.1C158.8,417.5,158.6,417.7,158,417.8z M163,411c0-0.5,0.5-0.7,1.4-0.6
				c0.8,0.1,1.2,0.4,1.2,0.9c0,0.9,0,1.8,0,2.8c0.2-0.3,0.6-0.3,0.9,0c2,2,4.1,3.6,6.4,4.8c0.4,0.1,0.5,0.3,0.3,0.6
				c-1.1,2.1-2.3,2.4-3.6,0.8c-1.2-1.7-2.5-3.4-4-5.2c-0.1,1.2-0.2,2.6-0.1,4.4c0.1,2.4,0.1,4-0.1,4.8c-1,1-1.8,0.9-2.4-0.2
				C163.2,416.9,163.2,412.5,163,411z"/>
				<path class="st21" d="M176.9,416.1c0.5-1.3,1.2-1.9,2.2-1.6c1.5,0.4,2.5,0.4,3.1,0.1c1.3-0.4,1.9,0,1.7,1
				c-0.4,1.4-0.6,2.9-0.6,4.7c-0.1,0.8,0.5,0.6,1.8-0.5c0.4-0.2,0.6-0.3,0.8-0.2c0.2,0.2,0.2,0.6-0.1,0.9c-0.6,0.9-1.3,1.7-2.3,2.6
				c-1.2,1-2.1,1.3-2.7,0.8c-0.4-0.4-0.5-1-0.2-2c0.6-1.4,0.9-2.8,0.9-4.1c0-1-0.3-1.4-1-1.3c-0.3,0-0.8,0.1-1.5,0.2
				c-0.7,0.1-1.3,0.2-1.7,0.3c-0.4,0.1-0.7,0-0.8-0.2C176.6,416.7,176.7,416.4,176.9,416.1z M184.1,413.5c-1.6,0.2-2.9-0.1-3.8-1
				c-0.4-0.5-0.4-1-0.1-1.4c0.6-0.4,1.2-0.4,1.7,0.1c0.4,0.4,1,0.8,1.8,1.4c0.2,0.1,0.4,0.2,0.5,0.3c0.2,0.1,0.3,0.2,0.3,0.4
				C184.5,413.3,184.4,413.4,184.1,413.5z M185.8,411.9c0.6-1.1,1.3-1.5,2-1.2c0.2,0.1,0.7,0.1,1.6,0.1c0.6,0,2.5,0,5.8,0
				c0.9,0,1.4,0.2,1.5,0.7c-0.1,0.4-0.4,0.7-1.1,0.7c-0.9,0-2,0-3.5,0c-0.3,0.1-0.5,0.5-0.6,1.3c0.2,0.2,0.8,0.2,1.7,0
				c1.1-0.5,1.7-0.3,1.9,0.6c0.1,0.3,0.1,0.9,0,1.7c-0.1,0.3,0,0.5,0.4,0.5c1.7,0,2.9,0,3.5,0.1c0.3,0.1,0.4,0.2,0.3,0.6
				c-0.6,1.6-1.5,2.1-2.8,1.6c-2.1-0.6-4.1-0.9-5.7-0.9c-0.9-0.1-2.7,0.3-5.3,1.2c-0.4,0.1-0.7,0.1-0.8,0c-0.1-0.1-0.1-0.3,0-0.6
				c0.2-1.2,1-1.8,2.5-1.7c1.1,0.2,1.7-0.1,1.7-1c0.1-0.3,0-0.5-0.4-0.5c-0.4,0-0.9,0.1-1.5,0.2c-0.3,0.1-0.5,0-0.6-0.1
				c-0.1-0.1-0.1-0.3,0-0.6c0.6-0.9,1.1-1.2,1.7-0.9c0.8,0.2,1.2,0,1.2-0.6c0.1-0.6,0-0.8-0.3-0.7c-1-0.1-1.9,0.1-2.5,0.4
				c-0.4,0.1-0.7,0.1-0.9-0.1C185.5,412.4,185.6,412.2,185.8,411.9z M189.5,423.8c-1,0.6-1.7,0.3-2-0.6c-0.2-0.8-0.4-1.9-0.4-3.3
				c0-1.2,0.7-1.5,2.2-1.1c0.1,0,0.3,0,0.5,0.1c0.2,0.1,0.3,0.1,0.5,0.1c0.9,0,1.9,0,3,0c0.3,0,0.6-0.1,0.7-0.2
				c1.3-0.4,2.1,0.1,2.3,1.3c-0.1,1.5-0.3,2.6-0.6,3.3c-0.4,0.8-1,1-1.9,0.5h-0.1c-0.2-0.2-0.8-0.3-1.8-0.3
				C190.6,423.5,189.8,423.6,189.5,423.8z M193.9,421.5c0.1-1-0.1-1.4-0.6-1.3c-1.1,0-2.3,0-3.7,0c-0.4-0.1-0.6,0.3-0.5,1.2
				c0,0.8,0.3,1.1,0.8,1C192.9,422.5,194.1,422.2,193.9,421.5z M190.9,415.9c-0.1,0.2,0,0.4,0.2,0.4c0.7,0,1.3,0,1.9,0
				c0.2,0.1,0.4-0.2,0.4-0.6c0-0.6-0.2-0.8-0.7-0.8c-0.2,0-0.6,0-1.1,0C191.3,414.7,191,415.1,190.9,415.9z"/>
				<path class="st21" d="M214.9,412.4c-0.1,0.4-0.2,1-0.2,1.7c0.3,0,0.6,0,0.9,0c0.6,0,1.1-0.8,1.5-2.4c0.2-1.2,0.7-1.6,1.7-1.2
				c0.9,0.4,1,1.1,0.1,2.1c-0.6,0.5-1,1-1.3,1.5c1.7,0.2,3,0.2,3.8,0c1.5-0.7,2.4-0.4,2.6,0.9c0,1.1,0,2,0,2.6
				c-0.1,0.6-0.2,0.9-0.6,1.1c-0.7,0.3-1.1,0.2-1.1-0.2c0-0.8,0-1.6,0-2.4c0-0.4-0.2-0.7-0.6-0.7c-1.1-0.2-3.5-0.2-7.1-0.2
				c-3.8,0.1-6.4,0.2-7.6,0.4c-1.2,0.1-1.7,0.7-1.7,1.7c0,0.4,0,0.9,0,1.5c0,0.4-0.2,0.7-0.6,0.7c-0.4-0.1-0.6-0.3-0.7-0.7
				c-0.1-1.6-0.2-2.8-0.2-3.7c0.2-1.1,0.9-1.5,2-1.2c0.2,0.2,0.6,0.3,1.1,0.3c0.7,0,1.5,0,2.4,0c-0.2-0.2-0.6-0.6-1.2-1
				c-0.8-0.9-0.6-1.6,0.6-2.1c0.6,0,1.1,0.3,1.4,0.9c0.2,0.7,0.4,1.5,0.5,2.2c1,0,2,0,3.1,0c-0.2-0.4-0.6-1-1.1-1.7
				c-0.4-1-0.1-1.7,1.1-1.8C214.6,410.7,214.9,411.3,214.9,412.4z M212,415.9c1.5,0.4,3,0.4,4.3,0c0.9-0.3,1.6-0.1,2,0.6
				c0.3,0.9,0,1.5-0.8,1.7c-1,0.1-1.7,0.2-2.1,0.5c0.1,0.3,0.2,0.5,0.6,0.6c1.1,0.1,2.8,0.2,5,0.2c0.6,0.2,0.5,0.6-0.2,1.1
				c-0.7,0.2-2.2,0.2-4.3,0c-0.2-0.1-0.3-0.1-0.4,0c-0.1,0.1-0.1,0.2,0,0.5c0.1,1.8-0.6,3.1-2.3,3.7c-1.8,0.6-3.6,0.2-5.4-0.9
				c-0.3-0.2-0.4-0.4-0.3-0.6c0.1-0.2,0.3-0.3,0.6-0.3c2.8,0.7,4.4,0.3,4.8-1.3c0.2-0.7,0-1-0.6-0.9c-1.3-0.1-2.9,0.2-5,0.7
				c-0.5,0.1-0.9,0-1.1-0.3c-0.2-0.3-0.1-0.7,0.2-1.1c0.4-0.7,1-0.9,1.8-0.7c0.9,0.2,2.2,0.2,4.1,0.1c0.2,0,0.3-0.1,0.4-0.2
				c0-0.1-0.1-0.3-0.2-0.5c-0.2-0.6,0.1-0.8,0.7-0.8c0.6,0.2,0.9,0.2,1.1,0c0.4-0.2,0.6-0.4,0.6-0.6c-0.1-0.2-0.3-0.4-0.8-0.4
				c-1.1,0-2.4,0.3-3.8,0.9c-0.6,0.2-1,0.2-1.5,0c-0.4-0.4-0.4-0.7,0-1.1C210.5,415.8,211.3,415.5,212,415.9z"/>
				<path class="st21" d="M229.3,413.6c-0.7-0.2-0.8-0.7-0.3-1.5c0.6-0.6,1.2-0.8,1.8-0.6c1,0.4,2.2,0.4,3.7,0.1c1.2,0,1.7,0.7,1.3,2
				c-0.3,0.4-0.8,1-1.6,1.7c-0.2,0.2,0,0.5,0.6,0.6c0.9,0.4,1.3,1.1,1.3,2c-0.1,1.6-1.2,2.5-3.1,2.6c-0.4,0-0.6,0.1-0.6,0.4
				c0,0.8,0,1.7,0,2.6c-0.1,0.5-0.4,0.8-1.1,1c-0.6,0.1-0.9-0.1-0.9-0.6c0-3,0-6.3,0-9.9c0-0.2-0.1-0.4-0.3-0.4
				C230,413.6,229.7,413.6,229.3,413.6z M232.3,413.6c0,0.6,0,1.2,0,2c1-0.4,1.5-1,1.7-1.8C233.5,412.8,232.9,412.8,232.3,413.6z
				 M232.3,419.3c0,0.2,0.1,0.4,0.2,0.4c0.8-0.1,1.4-0.4,1.8-0.9c0.5-1,0.1-1.7-1.1-2c-0.6,0-0.9,0.2-0.9,0.6
				C232.3,417.8,232.3,418.5,232.3,419.3z M238.1,418.2c-0.4,0.1-0.6,0-0.6-0.4c0-0.4,0.2-0.8,0.6-1.1c0.5-0.4,1-0.5,1.4-0.3
				c0.1,0.1,0.3,0.1,0.5,0.1c2.3-0.2,4.3-0.2,6.1,0c0.3,0.2,0.3,0.6,0,1.1c-0.7,0-1.4,0-2,0c-0.6,0.2-0.7,1-0.4,2.4
				c0.3,0.6,0.9,1,1.7,1.3c2.1,0.5,4.1,0.2,5.7-0.9c0.4-0.2,0.5,0.2,0.2,1.1c-0.9,1.7-2,2.7-3.3,2.9c-1.8-0.2-3.5-0.9-5.2-1.9
				c-0.9-0.9-1.1-1.9-0.8-3c0.1-0.3,0.1-0.9,0.1-1.7c-0.3-0.4-0.6-0.3-0.7,0.2c0.2,3.6-1.3,5.6-4.6,6c-1.1,0.1-1.8-0.2-2-0.9
				c0-0.2,0.1-0.3,0.2-0.4c3.4-0.6,5.1-2,5-4.3C239.8,417.9,239.3,417.8,238.1,418.2z M238.4,412.1c0.2,0.1,0.6,0.2,1.1,0.2
				c0.6-0.1,0.8-0.2,0.7-0.6c0-0.5,0-0.9,0-1.1c0-0.5,0.3-0.7,0.9-0.7c1.3,0,2,0.4,2,1.1c0,0.7,0.1,1,0.4,0.9c0.9,0,1.5,0,1.8,0
				c0.4-0.1,0.8-0.2,1.1-0.3c0.9-0.2,1.4,0.2,1.7,1.4c0,0.1,0,0.2,0.1,0.4c0.1,0.8,0.1,1.4,0.1,1.8c0,0.5-0.2,0.8-0.7,0.8
				c-0.4,0-0.6-0.3-0.6-0.8c0-0.8-0.2-1.3-0.5-1.7c-0.2-0.2-0.9-0.4-2-0.4c-2.3,0-4.2,0.1-5.7,0.2c-0.9,0.1-1.3,0.8-1.2,2.1
				c0,0.6-0.2,0.9-0.6,0.9c-0.4-0.1-0.6-0.4-0.6-0.9c-0.1-0.7-0.2-1.4-0.2-1.9c0-0.9,0.3-1.5,0.8-1.7
				C237.5,411.6,237.9,411.7,238.4,412.1z M244.9,415.2c-1.8,0.2-3.6,0.4-5.5,0.4c-0.6-0.1-0.7-0.4-0.6-0.7c0.7-0.6,1.3-0.7,1.7-0.4
				h0.1c1.2-0.1,2.2-0.2,3.1-0.2c0.9,0,1.3,0.2,1.3,0.6C245,415.1,245,415.2,244.9,415.2z"/>
		</g>
			<path class="st21" d="M202.9,485.2c-51.3,0-93-41.7-93-93s41.7-93,93-93c51.3,0,93,41.7,93,93S254.1,485.2,202.9,485.2z
			 M202.9,302.6c-49.5,0-89.7,40.2-89.7,89.7c0,49.5,40.2,89.7,89.7,89.7c49.5,0,89.7-40.2,89.7-89.7
			C292.6,342.8,252.3,302.6,202.9,302.6z"/>
			<path class="st21" d="M202.9,490.1c-53.9,0-97.8-43.9-97.8-97.8s43.9-97.8,97.8-97.8s97.8,43.9,97.8,97.8S256.8,490.1,202.9,490.1
			z M202.9,297.7c-52.1,0-94.5,42.4-94.5,94.5c0,52.1,42.4,94.5,94.5,94.5c52.1,0,94.5-42.4,94.5-94.5
			C297.4,340.1,255,297.7,202.9,297.7z"/>
			<g>
			<path class="st21" d="M102.4,441.4l-0.9-1.5c0.5-0.3,0.8-0.7,0.9-1.1s0.1-0.8-0.2-1.3c-0.2-0.5-0.5-0.9-0.9-1
				c-0.3-0.2-0.7-0.2-1,0c-0.2,0.1-0.3,0.2-0.4,0.4s-0.1,0.4-0.1,0.7c0,0.2,0.1,0.7,0.2,1.5c0.2,1,0.2,1.7,0,2.2
				c-0.2,0.7-0.6,1.2-1.3,1.5c-0.4,0.2-0.8,0.2-1.3,0.2c-0.5-0.1-0.9-0.3-1.3-0.6c-0.4-0.4-0.7-0.8-1-1.5c-0.5-1-0.6-1.9-0.4-2.6
				c0.2-0.7,0.7-1.2,1.4-1.6l0.8,1.6c-0.4,0.3-0.6,0.5-0.7,0.8c-0.1,0.3,0,0.7,0.2,1.1c0.2,0.5,0.5,0.8,0.8,1c0.2,0.1,0.4,0.1,0.6,0
				c0.2-0.1,0.3-0.2,0.4-0.5c0.1-0.3,0-0.9-0.1-1.7c-0.2-0.9-0.2-1.5-0.2-2c0-0.5,0.2-0.9,0.4-1.3c0.2-0.4,0.6-0.7,1.1-0.9
				c0.5-0.2,0.9-0.3,1.5-0.2c0.5,0.1,1,0.3,1.4,0.7c0.4,0.4,0.8,0.9,1.1,1.6c0.5,1,0.6,1.9,0.3,2.6
				C103.8,440.2,103.2,440.9,102.4,441.4z"/>
				<path class="st21" d="M96.5,428l-0.1-1.8c1-0.1,1.8,0.1,2.5,0.5c0.6,0.4,1.1,1.1,1.4,2c0.4,1.1,0.3,2.1-0.2,3.1
				c-0.5,1-1.4,1.7-2.7,2.2c-1.4,0.5-2.6,0.5-3.6,0.1c-1-0.4-1.7-1.2-2.1-2.4c-0.4-1-0.4-1.9,0-2.8c0.2-0.5,0.6-1,1.2-1.4l1,1.5
				c-0.4,0.3-0.7,0.6-0.8,1c-0.1,0.4-0.1,0.8,0,1.3c0.2,0.6,0.6,1,1.2,1.3c0.6,0.2,1.4,0.2,2.3-0.2c1-0.4,1.7-0.8,2-1.4
				c0.3-0.5,0.4-1.1,0.1-1.7c-0.2-0.4-0.4-0.8-0.8-1C97.7,428,97.2,427.9,96.5,428z"/>
				<path class="st21" d="M98.5,423.7L90,426l-0.5-1.7l3.3-0.9L92,420l-3.3,0.9l-0.5-1.7l8.5-2.3l0.5,1.7l-3.7,1l0.9,3.4l3.7-1
				L98.5,423.7z"/>
				<path class="st21" d="M92,416.1c-0.9,0.2-1.6,0.2-2.3,0c-0.5-0.1-0.9-0.3-1.3-0.6c-0.4-0.3-0.7-0.6-1-1c-0.3-0.5-0.5-1.1-0.7-1.8
				c-0.2-1.3,0-2.4,0.6-3.3c0.7-0.9,1.7-1.5,3.1-1.7c1.4-0.2,2.6-0.1,3.5,0.6c0.9,0.6,1.5,1.6,1.7,2.8c0.2,1.3,0,2.4-0.6,3.3
				C94.4,415.3,93.4,415.9,92,416.1z M91.7,414.3c1-0.2,1.7-0.5,2.1-1.1c0.4-0.5,0.6-1.2,0.5-1.9c-0.1-0.7-0.5-1.2-1.1-1.6
				c-0.6-0.4-1.4-0.5-2.4-0.3c-1,0.2-1.7,0.5-2.1,1c-0.4,0.5-0.6,1.1-0.4,1.9s0.5,1.3,1,1.6C89.9,414.4,90.7,414.5,91.7,414.3z"/>
				<path class="st21" d="M90.4,406.2c-0.9,0.1-1.6,0-2.3-0.2c-0.5-0.2-0.9-0.4-1.3-0.7c-0.4-0.3-0.7-0.7-0.9-1.1
				c-0.3-0.5-0.4-1.1-0.5-1.9c-0.1-1.3,0.2-2.4,0.9-3.2c0.7-0.8,1.8-1.3,3.2-1.4c1.4-0.1,2.5,0.2,3.4,0.9c0.9,0.7,1.3,1.7,1.5,3
				c0.1,1.3-0.2,2.4-0.9,3.2C92.8,405.6,91.8,406.1,90.4,406.2z M90.2,404.4c1-0.1,1.7-0.4,2.2-0.9c0.5-0.5,0.7-1.1,0.6-1.8
				c-0.1-0.7-0.4-1.3-0.9-1.7c-0.5-0.4-1.3-0.6-2.3-0.5c-1,0.1-1.7,0.4-2.2,0.9s-0.7,1.1-0.6,1.8c0.1,0.7,0.4,1.3,0.9,1.7
				C88.4,404.3,89.2,404.5,90.2,404.4z"/>
				<path class="st21" d="M94,395.8l-8.7,0.1l0-1.8l7.2-0.1l-0.1-4.4l1.5,0L94,395.8z"/>
				<path class="st21" d="M89.8,384.7c-0.9-0.1-1.6-0.3-2.2-0.6c-0.4-0.2-0.8-0.6-1.1-0.9c-0.3-0.4-0.5-0.8-0.7-1.2
				c-0.2-0.6-0.2-1.2-0.2-1.9c0.1-1.3,0.6-2.3,1.5-3c0.9-0.7,2-1,3.4-0.8c1.4,0.1,2.5,0.6,3.2,1.5c0.7,0.8,1,1.9,0.9,3.2
				c-0.1,1.3-0.6,2.3-1.5,3C92.3,384.6,91.2,384.8,89.8,384.7z M89.9,382.9c1,0.1,1.8,0,2.3-0.5c0.6-0.4,0.9-1,0.9-1.7
				c0.1-0.7-0.1-1.3-0.6-1.8c-0.5-0.5-1.2-0.8-2.2-0.9c-1-0.1-1.8,0-2.3,0.4c-0.5,0.4-0.8,0.9-0.9,1.7c-0.1,0.7,0.1,1.3,0.6,1.8
				C88.2,382.5,88.9,382.8,89.9,382.9z"/>
				<path class="st21" d="M95.2,375.1l-8.6-1.6l1.1-5.9l1.5,0.3l-0.8,4.2l2,0.4l0.7-3.6l1.5,0.3l-0.7,3.6l3.7,0.7L95.2,375.1z"/>
				<path class="st21" d="M97.6,364.1l-8.4-2.5l1.7-5.8l1.4,0.4l-1.2,4.1l2,0.6l1-3.5l1.4,0.4l-1,3.5l3.6,1.1L97.6,364.1z"/>
				<path class="st21" d="M95.6,355.6c-0.8-0.3-1.5-0.7-2-1.2c-0.3-0.3-0.6-0.7-0.8-1.2c-0.2-0.4-0.3-0.9-0.3-1.3
				c0-0.6,0.1-1.2,0.4-1.9c0.5-1.2,1.2-2,2.2-2.5c1-0.4,2.2-0.4,3.5,0.1c1.3,0.5,2.2,1.3,2.7,2.3c0.5,1,0.5,2.1,0,3.3
				c-0.5,1.2-1.2,2-2.2,2.5C98.1,356.1,96.9,356.1,95.6,355.6z M96.2,353.8c0.9,0.4,1.7,0.4,2.4,0.2c0.6-0.2,1.1-0.7,1.3-1.4
				c0.3-0.7,0.2-1.3-0.1-1.9c-0.3-0.6-0.9-1.1-1.9-1.5c-0.9-0.4-1.7-0.4-2.3-0.2c-0.6,0.2-1.1,0.7-1.3,1.4c-0.3,0.7-0.2,1.3,0.1,1.9
				C94.6,353,95.3,353.5,96.2,353.8z"/>
				<path class="st21" d="M103.3,347.8l-7.9-3.8l1.6-3.4c0.4-0.8,0.8-1.4,1.1-1.7c0.3-0.3,0.7-0.5,1.2-0.5c0.5-0.1,0.9,0,1.4,0.3
				c0.6,0.3,1,0.7,1.2,1.2c0.2,0.5,0.2,1.2,0,1.9c0.4-0.2,0.7-0.4,1.1-0.5c0.3-0.1,0.9-0.2,1.7-0.3l2-0.2l-0.9,1.9l-2.3,0.3
				c-0.8,0.1-1.3,0.2-1.6,0.3c-0.2,0.1-0.4,0.2-0.6,0.3c-0.1,0.1-0.3,0.4-0.5,0.8l-0.2,0.3l3.3,1.6L103.3,347.8z M99.6,344l0.6-1.2
				c0.4-0.8,0.6-1.3,0.6-1.5c0-0.2,0-0.4-0.1-0.6c-0.1-0.2-0.3-0.3-0.5-0.4c-0.3-0.1-0.5-0.2-0.7-0.1c-0.2,0.1-0.4,0.2-0.6,0.4
				c-0.1,0.1-0.3,0.5-0.6,1.1l-0.6,1.2L99.6,344z"/>
				<path class="st21" d="M107.3,339.8l-7.6-4.5l3.3-5.6l1.3,0.8l-2.4,4.1l1.7,1l2.2-3.8l1.3,0.8l-2.2,3.8l2.1,1.2l2.5-4.2l1.3,0.8
				L107.3,339.8z"/>
				<path class="st21" d="M111.7,332.7l-7.3-4.9l1-1.5l7.3,4.9L111.7,332.7z"/>
				<path class="st21" d="M113.5,324.4l-1.2-0.9l2.3-3l2.8,2.1c0.1,0.5,0,1.1-0.2,1.9s-0.5,1.4-1,2c-0.6,0.7-1.2,1.3-1.9,1.6
				s-1.5,0.4-2.2,0.2c-0.8-0.2-1.5-0.5-2.2-1c-0.7-0.6-1.3-1.2-1.6-1.9c-0.3-0.7-0.4-1.5-0.3-2.3c0.1-0.6,0.4-1.3,0.9-1.9
				c0.7-0.9,1.4-1.4,2.1-1.6c0.7-0.2,1.5-0.1,2.2,0.2l-0.8,1.6c-0.4-0.2-0.8-0.2-1.2-0.1c-0.4,0.1-0.8,0.4-1.1,0.8
				c-0.5,0.6-0.6,1.3-0.5,1.9c0.1,0.7,0.6,1.3,1.3,1.9c0.8,0.6,1.6,0.9,2.3,0.9c0.7-0.1,1.3-0.4,1.7-1c0.2-0.3,0.4-0.6,0.5-1
				c0.1-0.4,0.2-0.7,0.2-1.1l-0.9-0.7L113.5,324.4z"/>
				<path class="st21" d="M119.6,322l-6.5-5.9l1.2-1.3l6.8,1.3l-4.4-3.9l1.1-1.2l6.5,5.9l-1.2,1.3l-6.6-1.2l4.3,3.8L119.6,322z"/>
				<path class="st21" d="M128.3,312.8l-5.8-6.5l1.3-1.2l4.8,5.4l3.3-2.9l1,1.1L128.3,312.8z"/>
				<path class="st21" d="M140.3,303l-1.5,1.2L137,303l-2.8,2.1l0.6,2l-1.5,1.1l-2.6-9.1l1.5-1.1L140.3,303z M135.6,302.2l-2.9-1.9
				l1,3.3L135.6,302.2z"/>
				<path class="st21" d="M141.2,302.4l-4.7-7.4l1.5-0.9l6.2,3l-3.2-4.9l1.4-0.9l4.7,7.4l-1.5,1l-6.1-2.9l3.1,4.8L141.2,302.4z"/>
				<path class="st21" d="M150.9,292.8l-0.7-1.3l3.4-1.8l1.6,3.1c-0.2,0.5-0.5,1-1,1.6c-0.5,0.6-1.1,1-1.7,1.4
				c-0.8,0.4-1.6,0.6-2.4,0.6c-0.8,0-1.5-0.3-2.1-0.7c-0.6-0.5-1.2-1.1-1.5-1.8c-0.4-0.8-0.6-1.6-0.6-2.4c0-0.8,0.3-1.6,0.7-2.2
				c0.4-0.5,0.9-1,1.7-1.4c1-0.5,1.8-0.7,2.6-0.6c0.8,0.1,1.4,0.5,1.9,1.1l-1.4,1.1c-0.3-0.3-0.7-0.5-1.1-0.6
				c-0.4-0.1-0.9,0-1.3,0.3c-0.7,0.4-1.1,0.9-1.3,1.5c-0.2,0.6,0,1.4,0.4,2.3c0.5,0.9,1.1,1.5,1.7,1.8c0.7,0.2,1.3,0.2,2-0.2
				c0.3-0.2,0.6-0.4,0.9-0.7c0.3-0.3,0.5-0.6,0.6-0.9l-0.5-1L150.9,292.8z"/>
				<path class="st21" d="M154,285.1l1.6-0.7l1.8,4.4c0.3,0.7,0.5,1.1,0.6,1.3c0.2,0.3,0.5,0.5,0.8,0.6c0.3,0.1,0.7,0,1.2-0.2
				c0.5-0.2,0.8-0.4,0.9-0.7c0.2-0.3,0.2-0.6,0.1-0.9c-0.1-0.3-0.2-0.8-0.5-1.4l-1.9-4.5l1.6-0.7l1.8,4.2c0.4,1,0.7,1.7,0.7,2.1
				s0.1,0.8-0.1,1.2c-0.1,0.4-0.3,0.7-0.7,1.1c-0.3,0.3-0.8,0.6-1.5,0.9c-0.8,0.3-1.4,0.5-1.9,0.5c-0.5,0-0.9-0.1-1.2-0.3
				c-0.4-0.2-0.6-0.4-0.8-0.7c-0.3-0.4-0.6-1.1-1-2L154,285.1z"/>
				<path class="st21" d="M173.3,287.3l-1.8,0.6l-1.3-1.7l-3.3,1.1l-0.1,2.1l-1.8,0.6l0.5-9.4l1.8-0.6L173.3,287.3z M169.1,285
				l-2.2-2.7l-0.1,3.5L169.1,285z"/>
				<path class="st21" d="M177.5,283l-0.3-1.4l3.7-0.9l0.8,3.4c-0.3,0.4-0.7,0.9-1.4,1.3c-0.6,0.4-1.3,0.7-2,0.9
				c-0.9,0.2-1.7,0.2-2.5,0c-0.8-0.2-1.4-0.6-1.9-1.3c-0.5-0.6-0.8-1.3-1-2.2c-0.2-0.9-0.2-1.7,0-2.5c0.2-0.8,0.6-1.4,1.3-2
				c0.5-0.4,1.1-0.7,1.9-0.9c1.1-0.2,1.9-0.2,2.6,0.1c0.7,0.3,1.2,0.8,1.6,1.6l-1.6,0.7c-0.2-0.4-0.5-0.7-0.9-0.8
				c-0.4-0.2-0.8-0.2-1.3-0.1c-0.8,0.2-1.3,0.6-1.6,1.1c-0.3,0.6-0.4,1.3-0.2,2.3c0.2,1,0.6,1.7,1.2,2.1c0.6,0.4,1.2,0.5,1.9,0.3
				c0.4-0.1,0.7-0.2,1-0.5c0.3-0.2,0.6-0.5,0.8-0.7l-0.3-1.1L177.5,283z"/>
				<path class="st21" d="M183.7,285l-1.3-8.7l6.4-0.9l0.2,1.5l-4.7,0.7l0.3,1.9l4.4-0.6l0.2,1.5l-4.4,0.6l0.3,2.4l4.9-0.7l0.2,1.5
				L183.7,285z"/>
				<path class="st21" d="M191.3,281l1.7-0.3c0.1,0.6,0.4,1,0.7,1.2c0.3,0.2,0.8,0.4,1.3,0.3c0.6,0,1-0.2,1.3-0.5s0.4-0.6,0.4-0.9
				c0-0.2-0.1-0.4-0.2-0.5c-0.1-0.1-0.4-0.2-0.7-0.3c-0.2-0.1-0.7-0.2-1.4-0.3c-1-0.2-1.6-0.4-2.1-0.7c-0.6-0.4-0.9-1-0.9-1.7
				c0-0.4,0.1-0.9,0.3-1.3c0.2-0.4,0.6-0.7,1-1c0.5-0.2,1-0.4,1.7-0.4c1.1-0.1,1.9,0.1,2.5,0.5c0.6,0.4,0.9,1.1,1,1.9l-1.8,0.2
				c-0.1-0.4-0.3-0.8-0.6-0.9c-0.3-0.2-0.6-0.3-1.1-0.2c-0.5,0-0.9,0.2-1.2,0.4c-0.2,0.1-0.3,0.3-0.2,0.6c0,0.2,0.1,0.4,0.3,0.5
				c0.2,0.2,0.8,0.3,1.7,0.5c0.9,0.1,1.5,0.3,2,0.5c0.4,0.2,0.8,0.5,1,0.8c0.3,0.4,0.4,0.8,0.4,1.4c0,0.5-0.1,1-0.3,1.4
				c-0.2,0.5-0.6,0.8-1.1,1.1c-0.5,0.2-1.1,0.4-1.9,0.5c-1.1,0.1-2-0.1-2.6-0.6C191.9,282.7,191.5,282,191.3,281z"/>
				<path class="st21" d="M214.9,284l1.2-8.7l6.4,0.9l-0.2,1.5l-4.7-0.7l-0.3,1.9l4.4,0.6l-0.2,1.5l-4.4-0.6l-0.3,2.4l4.9,0.7
				l-0.2,1.5L214.9,284z"/>
				<path class="st21" d="M230.8,286.9l-1.9-0.4l-0.3-2.1l-3.4-0.8l-1.1,1.8l-1.8-0.4l5.2-7.8l1.8,0.4L230.8,286.9z M228.4,282.8
				l-0.5-3.4l-1.9,2.9L228.4,282.8z"/>
				<path class="st21" d="M232.3,284.3l1.7,0.3c-0.1,0.6,0,1.1,0.2,1.4s0.6,0.6,1.1,0.8c0.5,0.2,1,0.2,1.3,0s0.6-0.4,0.7-0.7
				c0.1-0.2,0.1-0.4,0-0.6c-0.1-0.2-0.2-0.4-0.5-0.6c-0.2-0.1-0.6-0.4-1.2-0.8c-0.8-0.5-1.4-1-1.7-1.4c-0.4-0.6-0.5-1.3-0.3-1.9
				c0.1-0.4,0.4-0.8,0.7-1.1c0.4-0.3,0.8-0.5,1.3-0.5c0.5-0.1,1.1,0,1.7,0.2c1.1,0.3,1.8,0.8,2.2,1.4c0.4,0.6,0.5,1.3,0.3,2.1
				l-1.7-0.4c0.1-0.5,0-0.8-0.2-1.1c-0.2-0.3-0.5-0.5-1-0.6c-0.5-0.2-0.9-0.2-1.2-0.1c-0.2,0.1-0.4,0.2-0.4,0.4
				c-0.1,0.2,0,0.4,0.1,0.6c0.2,0.2,0.6,0.6,1.4,1c0.8,0.4,1.3,0.8,1.6,1.2c0.3,0.3,0.6,0.7,0.7,1.1s0.1,0.9-0.1,1.4
				c-0.1,0.5-0.4,0.9-0.8,1.2c-0.4,0.3-0.9,0.5-1.4,0.6c-0.6,0.1-1.2,0-1.9-0.3c-1.1-0.3-1.8-0.8-2.2-1.5
				C232.2,286.1,232.1,285.3,232.3,284.3z"/>
				<path class="st21" d="M241.6,290.5l2.7-6.8l-2.4-0.9l0.5-1.4l6.5,2.5l-0.5,1.4l-2.4-0.9l-2.7,6.8L241.6,290.5z"/>
				<path class="st21" d="M256.6,293.8l1.3,1.3c-0.7,0.7-1.4,1.2-2.2,1.3c-0.8,0.1-1.6,0-2.4-0.5c-1-0.5-1.7-1.3-2-2.4
				c-0.3-1.1-0.1-2.2,0.5-3.4c0.7-1.3,1.5-2.1,2.6-2.5c1-0.4,2.1-0.3,3.2,0.3c1,0.5,1.6,1.2,1.9,2.1c0.2,0.5,0.2,1.1,0,1.8l-1.7-0.4
				c0.1-0.5,0.1-0.9-0.1-1.3c-0.2-0.4-0.5-0.7-0.9-0.9c-0.6-0.3-1.2-0.3-1.7-0.1c-0.6,0.2-1.1,0.8-1.6,1.7c-0.5,1-0.7,1.8-0.6,2.4
				c0.1,0.6,0.5,1.1,1.1,1.3c0.4,0.2,0.8,0.3,1.3,0.2C255.8,294.6,256.2,294.3,256.6,293.8z"/>
				<path class="st21" d="M258.1,298.3l4.7-7.4l1.5,0.9l-1.8,2.9l2.9,1.9l1.8-2.9l1.5,0.9l-4.7,7.4l-1.5-0.9l2.1-3.2l-2.9-1.9
				l-2.1,3.2L258.1,298.3z"/>
				<path class="st21" d="M265.6,303.2l5.1-7.1l1.4,1l-5.1,7.1L265.6,303.2z"/>
				<path class="st21" d="M268.6,305.4l5.5-6.8l1.3,1.1l-0.9,6.8l3.7-4.6l1.3,1l-5.5,6.8l-1.4-1.1l0.9-6.7l-3.6,4.4L268.6,305.4z"/>
				<path class="st21" d="M281.2,316.5l-1.4-1.3l0.8-2l-2.5-2.4l-1.9,0.9l-1.4-1.3l8.5-4l1.4,1.3L281.2,316.5z M281.3,311.8l1.4-3.2
				l-3.1,1.5L281.3,311.8z"/>
				<path class="st21" d="M284.1,319.7l6.7-5.6l1.1,1.3l-2.2,6.5l4.5-3.8l1.1,1.3l-6.7,5.6l-1.1-1.4l2.1-6.4l-4.4,3.7L284.1,319.7z"
				/>
				<path class="st21" d="M293.2,323.8c0.7-0.5,1.4-0.8,2.1-1c0.5-0.1,1-0.1,1.5,0c0.5,0.1,0.9,0.2,1.3,0.5c0.5,0.3,1,0.8,1.4,1.3
				c0.7,1.1,1,2.1,0.8,3.2c-0.2,1.1-0.9,2.1-2.1,2.9c-1.2,0.8-2.3,1.1-3.4,1s-2-0.8-2.8-1.8c-0.7-1.1-1-2.1-0.8-3.2
				C291.4,325.6,292.1,324.6,293.2,323.8z M294.3,325.3c-0.8,0.6-1.3,1.2-1.5,1.9c-0.2,0.7,0,1.3,0.4,1.9c0.4,0.6,0.9,0.9,1.6,1
				c0.7,0.1,1.4-0.2,2.3-0.8c0.8-0.6,1.3-1.2,1.5-1.8c0.2-0.6,0-1.3-0.4-1.9c-0.4-0.6-1-0.9-1.6-1
				C295.9,324.5,295.1,324.7,294.3,325.3z"/>
				<path class="st21" d="M295.3,334.6l7.6-4.4l1.9,3.2c0.5,0.8,0.7,1.4,0.8,1.9c0.1,0.4,0,0.9-0.2,1.3c-0.2,0.4-0.6,0.8-1,1
				c-0.6,0.3-1.1,0.4-1.7,0.3c-0.6-0.1-1.1-0.5-1.6-1.1c0,0.4-0.1,0.8-0.2,1.2s-0.3,0.9-0.7,1.6l-0.9,1.8l-1.1-1.8l1-2.1
				c0.4-0.7,0.6-1.2,0.6-1.5c0.1-0.2,0.1-0.4,0-0.6c0-0.2-0.2-0.5-0.4-0.8l-0.2-0.3l-3.2,1.8L295.3,334.6z M300.6,333.6l0.7,1.1
				c0.4,0.7,0.7,1.2,0.9,1.3c0.2,0.1,0.4,0.2,0.6,0.2c0.2,0,0.4,0,0.7-0.2c0.3-0.1,0.4-0.3,0.5-0.6c0.1-0.2,0.1-0.5,0-0.8
				c-0.1-0.1-0.3-0.5-0.6-1.1l-0.7-1.2L300.6,333.6z"/>
				<path class="st21" d="M299.8,342.4l8-3.7l1.1,2.4l-4.7,4l6.1-1.1l1.1,2.4l-8,3.7l-0.7-1.5l6.3-2.9l-7,1.3l-0.7-1.5l5.5-4.5
				l-6.3,2.9L299.8,342.4z"/>
				<path class="st21" d="M306.8,359.2l-0.7-1.8l1.6-1.4l-1.2-3.3l-2.1,0l-0.6-1.8l9.4,0.2l0.6,1.8L306.8,359.2z M308.9,355l2.6-2.2
				l-3.5,0L308.9,355z"/>
				<path class="st21" d="M307,360.3l8.4-2.3l0.5,1.7l-7,1.9l1.2,4.2l-1.4,0.4L307,360.3z"/>
				<path class="st21" d="M318.4,369.6l0.3,1.7l-4.7,0.8c-0.7,0.1-1.2,0.2-1.4,0.3c-0.3,0.1-0.6,0.4-0.8,0.7
				c-0.2,0.3-0.2,0.7-0.1,1.2c0.1,0.5,0.2,0.9,0.5,1.1c0.2,0.2,0.5,0.3,0.8,0.3c0.3,0,0.8-0.1,1.5-0.2l4.8-0.8l0.3,1.7l-4.5,0.7
				c-1,0.2-1.8,0.2-2.2,0.2c-0.4,0-0.8-0.1-1.2-0.3c-0.3-0.2-0.6-0.5-0.9-0.9c-0.2-0.4-0.4-0.9-0.5-1.6c-0.1-0.8-0.1-1.5,0-1.9
				c0.1-0.5,0.3-0.8,0.6-1.1c0.3-0.3,0.6-0.5,0.9-0.6c0.5-0.2,1.2-0.4,2.2-0.5L318.4,369.6z"/>
				<path class="st21" d="M311.1,379.9l8.7-0.7l0.1,1.7l-5.6,4.1l5.8-0.5l0.1,1.6l-8.7,0.7l-0.1-1.8l5.4-4l-5.7,0.5L311.1,379.9z"/>
				<path class="st21" d="M311.7,388.8l8.8-0.2l0,1.8l-8.8,0.2L311.7,388.8z"/>
				<path class="st21" d="M311.7,394.7l8.9-2.9l-0.1,1.9l-6.6,2l6.4,2.3l-0.1,1.9l-8.7-3.4L311.7,394.7z"/>
				<path class="st21" d="M311.5,400.8l8.7,0.9l-0.7,6.5l-1.5-0.2l0.5-4.7l-1.9-0.2l-0.5,4.4l-1.5-0.2l0.5-4.4l-2.4-0.3l-0.5,4.9
				l-1.5-0.2L311.5,400.8z"/>
				<path class="st21" d="M310.5,409.1l8.6,1.6l-0.7,3.7c-0.2,0.9-0.4,1.6-0.6,2c-0.2,0.4-0.6,0.7-1,0.8c-0.4,0.2-0.9,0.2-1.4,0.1
				c-0.6-0.1-1.1-0.4-1.5-0.9c-0.3-0.5-0.5-1.1-0.5-1.9c-0.3,0.3-0.6,0.6-0.9,0.8c-0.3,0.2-0.8,0.4-1.6,0.7l-1.9,0.7l0.4-2.1
				l2.1-0.9c0.8-0.3,1.2-0.5,1.4-0.7c0.2-0.1,0.4-0.3,0.5-0.5c0.1-0.2,0.2-0.5,0.3-0.9l0.1-0.4l-3.6-0.7L310.5,409.1z M315.2,411.8
				l-0.2,1.3c-0.2,0.8-0.2,1.4-0.2,1.6c0,0.2,0.1,0.4,0.3,0.6c0.2,0.2,0.4,0.2,0.6,0.3c0.3,0.1,0.5,0,0.7-0.1s0.4-0.3,0.5-0.6
				c0-0.1,0.1-0.6,0.3-1.3l0.3-1.4L315.2,411.8z"/>
				<path class="st21" d="M311.6,418.2l-0.3,1.7c-0.6-0.1-1.1,0-1.4,0.3c-0.3,0.2-0.6,0.6-0.7,1.1c-0.2,0.6-0.1,1,0,1.3
				c0.2,0.3,0.4,0.6,0.7,0.6c0.2,0.1,0.4,0,0.6,0c0.2-0.1,0.4-0.3,0.5-0.5c0.1-0.2,0.4-0.6,0.7-1.3c0.5-0.9,0.9-1.4,1.4-1.7
				c0.6-0.4,1.2-0.5,1.9-0.3c0.4,0.1,0.8,0.3,1.1,0.7c0.3,0.3,0.5,0.8,0.6,1.3c0.1,0.5,0,1.1-0.2,1.7c-0.3,1.1-0.7,1.8-1.4,2.2
				c-0.6,0.4-1.3,0.5-2.1,0.3l0.4-1.7c0.5,0,0.8,0,1.1-0.2c0.3-0.2,0.5-0.5,0.6-1c0.1-0.5,0.1-0.9,0-1.3c-0.1-0.2-0.2-0.4-0.5-0.4
				c-0.2-0.1-0.4,0-0.6,0.1c-0.2,0.2-0.6,0.6-1,1.4c-0.4,0.8-0.8,1.3-1.1,1.7c-0.3,0.3-0.7,0.6-1.1,0.7c-0.4,0.1-0.9,0.1-1.4,0
				c-0.5-0.1-0.9-0.4-1.3-0.8c-0.3-0.4-0.6-0.9-0.6-1.4c-0.1-0.5,0-1.2,0.2-1.9c0.3-1.1,0.8-1.8,1.4-2.3
				C309.9,418.2,310.7,418.1,311.6,418.2z"/>
				<path class="st21" d="M306.5,425.9l8.3,2.8l-0.6,1.7l-8.3-2.8L306.5,425.9z"/>
				<path class="st21" d="M304.6,431.2l6.8,2.7l1-2.4l1.4,0.5l-2.5,6.5l-1.4-0.5l0.9-2.4l-6.8-2.7L304.6,431.2z"/>
				<path class="st21" d="M301.5,438.5l3.3,1.6l6-0.7l-0.9,1.9l-4,0.4l2.3,3.3l-0.9,1.8l-3.2-5.1l-3.3-1.6L301.5,438.5z"/>
		</g>
			<g>
			<path class="st21" d="M112.9,465.3c-0.2,0.1-0.5,0-0.9-0.4c-0.3-0.4-0.4-0.6-0.3-0.8l2.8-2.1l-2.9-3.8c-0.2-0.3-0.4-0.5-0.6-0.8
				l0.1-0.5c0.1,0.1,0.2,0.3,0.2,0.4l3.4,4.4l2.3-1.7c0.1,0,0.2,0,0.2,0.1c0.3,0.4,0.6,1,0.8,1.6c-0.1,0.1-0.1,0.1-0.2,0.1
				c-0.1,0-0.1,0-0.2-0.1c-0.2-0.1-0.4,0-0.5,0.1l-1.5,1.1l2.1,2.8c0.1,0,0.3,0,0.4,0c0.6,0,1,0,1.2,0c0.1,0,0.1,0.1,0.1,0.2
				c0.1,0.8,0.1,1.6,0,2.2c0,0.2-0.1,0.2-0.3,0.2l-3.9-5.1L112.9,465.3z M121.1,453.4c0.4,1,0.6,1.7,0.6,2.1c0.1,0.2,0,0.3-0.2,0.3
				c0,0-0.1-0.1-0.2-0.1c-0.1-0.1-0.2-0.2-0.3-0.2c-0.4,0.1-0.9,0-1.6,0c0.1,0.1,0.1,0.3,0.2,0.5c0,0-0.1,0-0.1,0.1
				c-0.1,0.1-0.3,0.1-0.4,0l-3.7,2.8c-0.2,0.2-0.6,0.1-1-0.4c-0.4-0.4-0.4-0.7-0.2-0.9l3.1-2.4c-1.6-0.2-2.6-0.5-2.8-0.6
				c-0.1,0-0.1-0.1-0.1-0.2c0-0.1,0-0.1,0.1,0c1.7,0.2,3.7-0.1,6.2-0.9C121,453.3,121.1,453.3,121.1,453.4z M125.6,460.7
				c0,0.1,0,0.3,0,0.6c0.1,0.8,0.1,1.3,0,1.5c0,0.2-0.1,0.2-0.3,0.1c-0.1-0.1-0.2-0.2-0.4-0.3c-0.9-0.4-2.2-1.1-3.7-2.2l-0.6,0.5
				c-0.5,0.3-0.5,0.8-0.1,1.4l0.6,0.7c0.9,1.1,2,1.3,3.5,0.7c0.1,0,0.1,0,0.1,0c0.2,0,0.3,0.1,0.2,0.3c-0.9,0.5-1.4,1-1.6,1.6
				c-0.1,0.3-0.4,0.5-0.9,0.5c-0.5-0.1-1.1-0.6-1.9-1.4l-1.3-1.7c-0.9-1.2-1-2.1-0.3-2.6l1-0.8c-0.5-0.5-1.2-1-1.9-1.6
				c0-0.1-0.1-0.1,0-0.2c0.1,0,0.1,0,0.2,0c0.2,0.1,0.5,0.3,0.9,0.5c0.6,0.4,1,0.7,1.4,0.8l3.1-2.3l0.1,0c0.2,0.3,0.5,0.9,0.8,1.8
				c0,0.1-0.1,0.2-0.2,0.2c-0.2,0-0.3-0.1-0.5-0.1l-1.6,1.3c0.9,0.3,2,0.6,3.4,0.8C125.5,460.5,125.5,460.5,125.6,460.7
				C125.6,460.6,125.6,460.6,125.6,460.7z"/>
				<path class="st21" d="M129,475.9c0.3,0.5,0.5,1.1,0.7,1.8c0,0.2-0.1,0.3-0.3,0.3l-0.8-0.3c-1.8,0.2-3.6,0.2-5.5-0.2
				c-0.1-0.1-0.1-0.2,0.1-0.3c1.9,0,3.7-0.5,5.5-1.3C128.8,475.7,128.9,475.7,129,475.9z M129.9,481.8c-0.5,0.7-1.3,0.7-2.4,0
				c0-0.1,0-0.2,0-0.2c0.4-0.6,0.4-1.4-0.2-2.3c0-0.1,0-0.1,0.2-0.1c1,1,1.6,1.4,1.7,1.1l2.6-3l-2.6-2.3c-0.2,0.1-0.5,0.1-0.6,0.1
				c-0.1,0-0.2-0.1-0.2-0.2c0-0.2,0-0.5-0.1-1c0-0.4,0-0.6,0-0.6c0-0.2,0.1-0.3,0.3-0.3l0.6,0.2c1-0.3,2.2-0.7,3.7-1.2l-1.7-1.5
				c-0.2-0.1-0.5-0.3-0.7-0.4l0-0.6c0.1,0.1,0.3,0.3,0.4,0.4l2.4,2.1c1.2-0.4,2.2-0.9,3.1-1.4c0.1,0,0.2,0,0.3,0.1
				c0.5,0.9,0.7,1.5,0.8,1.9c0,0.1-0.1,0.2-0.2,0.1l-0.7-0.3c-0.6,0.3-1.2,0.5-1.8,0.7l3.9,3.4c0.6-0.2,1.2-0.3,1.6-0.3
				c0.1,0,0.2,0.1,0.2,0.2c0.2,0.8,0.4,1.5,0.4,2.1c0,0.2-0.1,0.3-0.2,0.2l-6.3-5.4c-2,0.8-3.5,1.4-4.7,1.6l2.4,2.1l2.3-2.7
				c0.1-0.1,0.1-0.1,0.2-0.1c0.2,0.2,0.6,0.7,1,1.4c0,0.1,0,0.2-0.2,0.2l-0.4,0l-0.8,1l-1,1.1l2,1.7c0.1,0.1,0.4,0,1-0.2
				c0.3-0.1,0.6-0.2,0.7-0.2c0.1,0,0.2,0.1,0.2,0.2c0.2,0.8,0.4,1.5,0.4,2.1c0,0.2-0.1,0.3-0.2,0.2l-4.2-3.6L129.9,481.8z
				 M132.9,479.9c1.3,1.8,1.8,3.3,1.5,4.5c-0.2,0.7-0.7,1.1-1.4,1.1c-0.7-0.2-0.9-0.6-0.7-1.2c0.6-1.4,0.6-2.8,0.2-4.2
				C132.7,479.8,132.8,479.8,132.9,479.9z"/>
				<path class="st21" d="M147.5,489.4c-1.1,1.7-2.9,2.7-5.5,2.8c-0.1,0-0.1-0.1,0-0.2c1.9-0.6,3.4-1.9,4.6-3.7l3.8-6.8
				c0.1,0,0.1-0.1,0.2-0.1c0.5,0.3,0.9,0.6,1.4,1c0,0.1,0,0.1,0,0.2c-0.1,0-0.1,0-0.2,0c-0.3,0.1-0.5,0.1-0.5,0.2L147.5,489.4z
				 M144.8,489.4c-0.2,0.2-0.5,0.2-1,0c-0.4-0.2-0.5-0.4-0.4-0.6l3.4-6.2c0.1-0.3,0.3-0.6,0.4-0.7c0.1-0.1,0.1-0.1,0.2-0.1
				c0.4,0.2,0.9,0.6,1.3,1.1c0,0.1,0,0.1,0,0.2c-0.1,0-0.1,0-0.2,0.1c-0.2,0-0.3,0.1-0.3,0.1L144.8,489.4z M153.9,496
				c-0.4,0.4-1,0.4-1.9,0.1c-0.2-0.1-0.2-0.2-0.2-0.2c0.1-0.5,0-1.1-0.4-1.5c0-0.1,0.1-0.2,0.2-0.2c0.6,0.5,1,0.7,1.4,0.4l2.8-5
				l-1.7-1l-4,7.2c-0.2,0.2-0.5,0.3-1,0.1c-0.4-0.1-0.5-0.3-0.4-0.6l4.2-7.5l-1.4-0.8l-3.3,5.9c-0.2,0.2-0.5,0.3-0.9,0.1
				c-0.4-0.2-0.6-0.4-0.5-0.6c1.2-2.1,2-3.5,2.4-4.2l0.8-1.4c0.2-0.4,0.4-0.8,0.6-1.2c0.1-0.1,0.2-0.1,0.2,0
				c0.3,0.4,0.5,0.7,0.7,1.1l1.5,0.8l1.3-2.4l-1.9-1c0.3,0.1-0.1,0-1-0.5l-0.1-0.6c0.2,0.2,0.5,0.4,0.9,0.6l4.8,2.7
				c0.1,0.1,0.4,0,0.8-0.2c0.2-0.1,0.4-0.2,0.5-0.2c0.1,0,0.1,0.1,0.2,0.1c0.3,0.6,0.5,1.2,0.6,1.6c0,0.1-0.1,0.2-0.2,0.2l-3-1.7
				c-0.2,0.1-0.4,0.1-0.6,0.1l-1.1,2.1l1.4,0.8c0.1,0,0.2-0.1,0.4-0.2c0.1,0,0.2-0.1,0.3-0.1c0.1,0,0.2,0,0.3,0.1l0.1,0
				c0,0.1,0.1,0.2,0.2,0.4c0.4,0.6,0.6,1,0.7,1.2c0,0-0.1,0.1-0.1,0.2c-0.1,0-0.4,0-0.7-0.1L153.9,496z"/>
				<path class="st21" d="M164.5,499.6c0.1-0.1,1-0.8,2.6-2.3c1.3-1.2,2.3-2,2.8-2.5c0-0.1,0.1,0,0.2,0.1l-0.4,0.5
				c-1.9,2-3.1,3.6-3.8,4.8c-0.2,0.3-0.3,0.9-0.4,1.6c0,0.2,0,0.4,0,0.5c-0.3,0.8-0.7,1.2-1.4,0.9c-0.6-0.2-0.8-0.7-0.5-1.4
				c0-0.1,0.1-0.3,0.2-0.5c0.2-0.3,0.3-0.5,0.3-0.6c0-0.4-0.2-0.8-0.7-1.2c0-0.3,0.1-0.3,0.3-0.2C164,499.5,164.3,499.6,164.5,499.6
				z M164.7,495c1.2,0.6,1.8,1.2,1.7,1.7c0,0.5-0.2,0.8-0.7,0.9c-0.5,0-0.8-0.2-0.9-0.7c0.1-0.6,0-1.2-0.4-1.8
				C164.6,495,164.6,494.9,164.7,495z M174.2,495.7c-1,0.2-1.5,0.1-1.5-0.5l0.4-1.3l-2.6-0.8l-0.4,1.2c-1,0.2-1.5,0-1.4-0.6l0.3-1
				l-2.2-0.7c-0.3-0.1-0.6-0.2-0.9-0.3l-0.2-0.5c0.1,0,0.3,0.1,0.4,0.2l3,0.9l0.6-2c0.9,0.3,1.4,0.6,1.7,0.9c0,0,0,0.1,0,0.2l0,0.1
				c-0.1,0.1-0.2,0.1-0.4,0.1l-0.4,1.3l2.6,0.8l0.6-2c0.9,0.3,1.4,0.6,1.7,0.9c0.1,0.1,0,0.1-0.1,0.2c0,0,0,0,0,0.1
				c-0.1,0.1-0.2,0.1-0.3,0.1l-0.4,1.3l1.8,0.6c0.1-0.1,0.2-0.1,0.4-0.2c0.4-0.3,0.7-0.5,0.9-0.6c0.1-0.1,0.1,0,0.2,0.1
				c0.7,0.7,1.1,1.2,1.2,1.6c0,0.1-0.1,0.2-0.2,0.2l-4.4-1.4L174.2,495.7z M166.6,492.9c1.1,0.5,1.7,1,1.8,1.7
				c0,0.5-0.3,0.8-0.7,0.9c-0.5,0-0.8-0.2-0.8-0.7c0.1-0.7-0.1-1.3-0.4-1.8C166.5,492.9,166.6,492.9,166.6,492.9z M169.6,502.5
				c-0.1,0.4,0,0.7,0.5,0.9l2.6,0.8c1.5,0.5,2.6,0,3.4-1.6c0-0.1,0.1-0.1,0.3-0.1c0.1,0.1,0.1,0.2,0,0.3c-0.7,1.1-0.8,1.9-0.4,2.5
				c0,0.3-0.2,0.6-0.5,0.7c-0.5,0.2-1.5,0.1-2.9-0.3l-4.1-1.3c-0.7-0.2-0.9-0.8-0.6-1.8l2.4-7.7c0-0.1,0.1-0.1,0.2,0
				c0.4,0.3,0.7,0.6,1.2,1.1l3,0.9c0.3-0.2,0.6-0.4,0.7-0.4c0,0,0.1,0,0.1,0c0,0,0.1,0,0.1,0c0.5,0.5,0.8,0.9,1,1.2
				c0,0,0,0.1-0.1,0.2c-0.2,0.1-0.4,0.2-0.6,0.2c-0.6,1.9-1.1,3.2-1.6,3.7c-0.4,0.6-1.1,0.8-2.2,0.8c-0.1,0-0.1,0-0.2-0.2
				c0.1-0.7-0.2-1.3-0.9-1.7c0-0.2,0-0.3,0.1-0.3c1.6,1.2,2.8,0.1,3.5-3.2l-3.3-1L169.6,502.5z"/>
				<path class="st21" d="M196.5,509.5c-2.5-1.9-3.8-4.7-3.9-8.4l-0.1,0c-0.6,4.4-3.2,6.9-7.7,7.5c-0.2,0-0.2,0-0.3-0.1
				c0-0.1,0.1-0.2,0.2-0.3c3.4-0.9,5.5-3.3,6.1-7.2l-4-0.4c-0.3,0-0.6,0-0.9,0l-0.3-0.4c0.2,0,0.4,0.1,0.5,0.1l4.8,0.5
				c0-0.2,0-0.4,0.1-0.7c0.1-0.4,0.1-0.7,0.1-0.9l0.2-2.4c0-0.4,0-0.8,0-1.3c0-0.1,0.1-0.1,0.2-0.1c0.8,0.1,1.5,0.3,2.1,0.6
				c0,0,0,0.1,0,0.3c-0.1,0.1-0.3,0.2-0.6,0.3l-0.2,2c-0.1,0.8-0.2,1.6-0.3,2.3l3.8,0.4c0.4-0.5,0.7-0.9,1.2-1.2
				c0-0.1,0.1-0.1,0.2,0c0.6,0.5,1.2,1,1.6,1.5c0.1,0.2,0.1,0.3-0.1,0.3l-6.4-0.6c0.6,3.2,2.6,5.4,5.9,6.6c0.1,0.1,0.1,0.3,0,0.4
				c-0.9,0.2-1.5,0.6-1.9,1.3C196.8,509.6,196.7,509.6,196.5,509.5z"/>
				<path class="st21" d="M219.1,498.4c0.1,0,0.2,0.1,0.4,0.2c0.7,0.4,1.2,0.7,1.4,0.8c0.1,0.1,0.1,0.2-0.1,0.4
				c-0.9,0-1.7,0.4-2.6,1.2c-0.1,0-0.2,0-0.2-0.2c0.1-0.3,0.2-0.7,0.4-1.4l-9.4,1c0.4,0.9,0.3,1.6-0.2,2c-0.5,0.4-0.9,0.5-1.3,0.2
				c-0.4-0.5-0.4-1,0-1.4c0.1,0,0.2-0.2,0.3-0.3c0,0,0.1-0.1,0.1-0.1c0.2-0.4,0.2-0.9,0.2-1.5c0.1-0.1,0.1-0.2,0.2-0.1
				c0.2,0.3,0.4,0.6,0.6,0.9l6.8-0.7c0.1-0.5,0.3-1.2,0.5-2.1c0.2-0.9,0.4-1.6,0.5-2c0.1-0.1,0.3-0.1,0.4-0.1
				c0.2,0.1,0.5,0.2,1.1,0.4c0.5,0.2,0.8,0.3,0.9,0.3c0.1,0.1,0.1,0.2,0,0.3c-0.3,0.1-0.5,0.3-0.8,0.5c-1,1-1.8,1.8-2.4,2.7l2.3-0.2
				c0.2-0.3,0.4-0.6,0.5-0.7C218.9,498.4,219,498.4,219.1,498.4z M216.6,500.6c0.6,0.2,1.3,0.6,1.8,1c0,0.1,0,0.2-0.1,0.4
				c-0.8,0-1.7,0.4-2.7,1l0,0.1c0,0.1,0.1,0.1,0,0.2l-0.3,0.3l0.1,1l3.3-0.3c0-0.1,0.1-0.2,0.2-0.4c0.3-0.5,0.5-0.7,0.6-0.9
				c0.1-0.1,0.1-0.1,0.2,0c0.9,0.3,1.5,0.7,1.8,1c0,0.1,0,0.2-0.1,0.3l-5.9,0.6l0.3,2.5c0.2,1.1-0.3,1.8-1.7,2
				c-0.1,0.1-0.3,0-0.4-0.1c-0.3-0.8-0.9-1.2-2-1.3c-0.2-0.1-0.2-0.2,0-0.3c1.6,0.1,2.3-0.2,2.2-0.8l-0.2-1.7l-5,0.5
				c-0.3,0-0.7,0.1-1,0.1l-0.3-0.4c0.2,0,0.3,0,0.5,0l5.8-0.6l-0.1-1.2l-0.2-0.7c0-0.1,0-0.1,0.1-0.1c0.5,0.1,1.1,0.1,1.6,0.2
				c0.2-0.3,0.4-0.8,0.7-1.3l-4.6,0.5c-0.3,0-0.7,0.1-1,0.1l-0.3-0.4c0.2,0,0.3,0,0.5,0l5.4-0.6c0-0.1,0.1-0.2,0.3-0.3
				c0.1-0.2,0.2-0.3,0.2-0.3C216.4,500.6,216.5,500.6,216.6,500.6z M208.8,496.2c1.7,0.4,2.7,1.1,2.9,2c0.2,0.6,0,1-0.5,1.3
				c-0.6,0.3-1,0.1-1.2-0.5c-0.1-0.2-0.1-0.5-0.1-0.9c-0.1-0.6-0.5-1.2-1.1-1.8c0,0-0.1-0.1-0.1-0.2
				C208.7,496.2,208.7,496.2,208.8,496.2z M213.1,498.2c0-0.1-0.1-0.4-0.1-0.8c-0.1-0.7-0.5-1.2-1-1.7c0-0.1-0.1-0.1-0.1-0.2
				c0-0.1,0.1-0.1,0.2-0.1c1.5,0.4,2.5,1,2.8,2c0.2,0.6,0,1-0.6,1.3C213.7,499,213.3,498.8,213.1,498.2z"/>
				<path class="st21" d="M231.2,498.3c1.2-0.1,2,0.2,2.4,0.9c0.2,0.5,0.1,0.9-0.2,1.2c-0.3,0.3-0.7,0.3-1,0
				c-0.1-0.2-0.2-0.4-0.3-0.7c-0.1-0.6-0.4-1-0.9-1.3c-0.3,1-0.7,2-1.2,2.8c-0.1,0.1-0.1,0.1-0.2,0.1c0,0-0.1-0.1,0-0.1
				c0.6-2.9,0.6-5.6,0-8.2c0-0.1,0-0.2,0.2-0.2c0.8,0,1.6,0.1,2.3,0.2c0.1,0,0.1,0.1,0.1,0.2c-0.1,0.1-0.1,0.1-0.2,0.2
				c-0.2,0.1-0.2,0.3-0.2,0.4c0,0.5-0.1,1.1-0.1,1.7l1.4-0.4c0.1-0.2,0.2-0.5,0.4-0.7c0,0,0.1-0.1,0.2-0.1l0.1,0
				c0.5,0.1,1,0.2,1.7,0.4c0,0,0.1,0.1,0.1,0.2l0,0.1c0,0-0.1,0-0.1,0.1c-0.2,0.1-0.2,0.3-0.2,0.4c0.6,4.8-0.8,8.1-4.2,9.9
				c0,0-0.1,0-0.1,0c0,0,0-0.1,0-0.1c2.6-2.2,3.4-5.5,2.5-9.9l-1.7,0.6C231.7,496.6,231.5,497.4,231.2,498.3z M240.8,502.8
				c0.1,0.2-0.2,0.5-0.7,0.8c-0.6,0.3-0.9,0.3-1,0.1c-1.5-5-2.4-8.1-2.9-9.6l-1.1-3.5c1-0.3,1.7-0.4,2-0.3c0.1,0,0.2,0.1,0.1,0.3
				c-0.1,0.1-0.2,0.3-0.3,0.4l0.8,2.6C238.2,495.1,239.2,498.1,240.8,502.8z M238.3,494.6c2.2,0.1,3.7,0.8,4.4,1.9
				c0.3,0.5,0.3,1.1-0.1,1.5c-0.4,0.4-0.9,0.4-1.3,0c-0.1-0.2-0.3-0.4-0.5-0.9c-0.5-1.2-1.4-2-2.6-2.4
				C238.2,494.7,238.2,494.6,238.3,494.6z"/>
				<path class="st21" d="M247.3,485.8c1.2-0.5,2.1-0.4,2.7,0.1c0.4,0.3,0.4,0.7,0.2,1.2c-0.3,0.5-0.7,0.6-1.1,0.4
				c-0.1-0.1-0.2-0.2-0.3-0.4c-0.1-0.1-0.1-0.2-0.1-0.2c-0.3-0.4-0.8-0.7-1.4-0.9C247.2,486,247.2,485.9,247.3,485.8z M254.3,494.3
				c0.4-0.8,0.7-1.3,0.7-1.5c0.1,0,0.2,0,0.2,0.1c0,0.4-0.1,1.1-0.1,2.3c-0.1,0.8-0.1,1.3-0.1,1.5c0,0.1-0.1,0.1-0.2,0.1
				c-0.5-0.3-0.9-0.5-1.3-0.8c-0.1-0.1-0.1-0.2-0.1-0.2c0-0.2,0-0.5-0.2-0.8l-2.8-5l-0.5,0.3l-0.8,0.5l-0.4-0.2c0,0,0.2-0.1,0.4-0.1
				l0.2-0.1l0.7-0.4c0-0.5,0.1-0.8,0.2-0.8c0.5-0.1,1-0.1,1.7,0c0,0.1,0,0.2,0,0.3c-0.1,0.1-0.1,0.2-0.1,0.2L254.3,494.3z
				 M256.7,484.8c0-0.1,0-0.1,0-0.2c0-0.3,0.1-0.5,0.1-0.6c0-0.1,0.1-0.1,0.2-0.1c0.6-0.1,1.1-0.1,1.5-0.1c0.1,0,0.1,0.1,0.1,0.2
				c-0.1,0.1-0.2,0.2-0.2,0.4l1,2.4l0.4-0.2c0-0.1,0.1-0.4,0.1-0.9c0-0.2,0.1-0.4,0.1-0.4c0.1,0,0.1-0.1,0.2-0.1
				c0.8,0,1.4,0.1,1.8,0.3c0.2,0,0.2,0.1,0.1,0.2l-7.9,4.5c0,0-0.3,0.2-0.8,0.5l-0.4-0.2c0.1-0.1,0.3-0.1,0.4-0.2l1.6-0.9
				c-0.3-0.9-0.6-1.8-1-2.6l-0.7,0.4c-0.3,0.2-0.5,0.3-0.8,0.5l-0.4-0.2c0.2-0.1,0.3-0.2,0.5-0.2l1.4-0.8c-0.3-0.7-0.5-1.4-0.8-2
				l-1.1,0.7c-0.3,0.2-0.5,0.3-0.8,0.5l-0.5-0.2c0.2-0.1,0.3-0.2,0.5-0.2l5.3-3c0-0.1,0.1-0.4,0.1-0.9c0-0.2,0.1-0.4,0.1-0.4
				c0,0,0.1,0,0.2-0.1c0.7,0,1.4,0.1,1.9,0.3c0.1,0.1,0.1,0.1,0,0.3l-3.9,2.2l0,0.1l-0.2,0.6c0,0.1,0.1,0.3,0.3,0.9
				c0.1,0.3,0.2,0.6,0.2,0.7L256.7,484.8z M258.5,494.6c0,0.9-0.4,1.2-1.2,0.9l-2-3.7l-0.5-0.8c0.5-0.2,1-0.2,1.4-0.2l3.2-1.8
				c0-0.1,0-0.2,0.1-0.3c0.1-0.2,0.1-0.3,0.2-0.4c0-0.1,0.1-0.1,0.2-0.2c0.5-0.1,1,0,1.5,0.1c0.1,0,0.1,0.1,0.1,0.2l-0.2,0.5l1.9,3
				c-0.4,0.9-0.8,1.2-1.3,0.8l-0.3-0.5l-3.4,2L258.5,494.6z M258.1,487.6L257,485l-1.8,1c0.1,0.3,0.3,0.7,0.5,1.4
				c0.2,0.6,0.4,1,0.5,1.3L258.1,487.6z M256.5,491.1l1.5,2.7l3.4-2l-1.5-2.7L256.5,491.1z"/>
				<path class="st21" d="M265.7,474.4c1.7-0.7,2.8-0.7,3.5,0c0.5,0.4,0.6,0.8,0.4,1.4c-0.3,0.5-0.7,0.6-1.2,0.3
				c-0.2-0.1-0.4-0.3-0.6-0.6c-0.5-0.4-1.1-0.7-1.9-0.8c-0.1,0-0.1,0-0.2-0.1C265.6,474.5,265.6,474.4,265.7,474.4z M275.4,470.2
				c0.1,0,0.2,0,0.4-0.1c0.8-0.1,1.4-0.1,1.6-0.1c0.1,0,0.2,0.1,0.1,0.3c-0.7,0.5-1.2,1.3-1.4,2.5c-0.1,0.1-0.2,0.1-0.2,0
				c-0.1-0.3-0.2-0.7-0.4-1.4l-7.1,6.3c0.8,0.5,1.2,1.1,1,1.8c-0.1,0.6-0.5,0.9-1,0.9c-0.6-0.2-0.8-0.6-0.8-1.1c0-0.1,0-0.2,0-0.4
				c0-0.1,0-0.1,0-0.2c-0.1-0.4-0.3-0.9-0.7-1.3c0-0.1,0-0.2,0.1-0.2c0.4,0.1,0.7,0.3,1,0.4l5.1-4.5c-0.2-0.4-0.4-1.1-0.8-2
				c-0.3-0.9-0.6-1.5-0.7-2c0.1-0.2,0.2-0.3,0.3-0.3c0.2,0,0.6-0.2,1.2-0.3c0.5-0.1,0.8-0.2,0.9-0.3c0.1,0,0.2,0.1,0.2,0.2
				c-0.1,0.3-0.3,0.6-0.4,0.9c-0.2,1.3-0.4,2.5-0.4,3.6l1.8-1.6c0-0.4,0-0.7,0-0.9C275.2,470.3,275.2,470.2,275.4,470.2z
				 M270.3,473.5c-0.1-0.1-0.3-0.3-0.6-0.6c-0.5-0.5-1.1-0.7-1.8-0.8c-0.1,0-0.1-0.1-0.2-0.1c0-0.1,0-0.1,0.1-0.2
				c1.5-0.6,2.6-0.6,3.5,0c0.5,0.4,0.6,0.9,0.3,1.4C271.3,473.8,270.8,473.9,270.3,473.5z M274.6,473.4c0.7-0.2,1.3-0.3,2.1-0.3
				c0.1,0,0.1,0.1,0.1,0.3c-0.7,0.5-1.2,1.3-1.6,2.4l0,0c0.1,0,0.1,0.1,0.1,0.1l-0.1,0.4l0.7,0.8l2.5-2.2c0-0.1,0-0.2,0-0.4
				c0-0.5-0.1-0.9,0-1.1c0-0.1,0.1-0.1,0.1-0.1c0.9-0.2,1.6-0.3,2-0.2c0.1,0.1,0.1,0.2,0.1,0.3l-4.5,4l1.7,1.8
				c0.8,0.8,0.8,1.6-0.2,2.6c-0.1,0.1-0.2,0.2-0.4,0.1c-0.7-0.5-1.5-0.5-2.4,0.1c-0.2,0-0.2,0-0.1-0.3c1.3-0.9,1.8-1.5,1.3-2
				l-1.1-1.3l-3.8,3.3c-0.3,0.2-0.5,0.4-0.7,0.6l-0.5-0.1c0.1-0.1,0.2-0.2,0.4-0.3l4.4-3.8l-0.8-0.9l-0.5-0.4c-0.1-0.1,0-0.1,0-0.2
				c0.4-0.2,0.9-0.5,1.4-0.8c-0.1-0.4-0.1-0.8-0.2-1.4l-3.5,3.1c-0.3,0.2-0.5,0.4-0.7,0.6l-0.5-0.1c0.1-0.1,0.2-0.2,0.4-0.3l4.1-3.6
				c0-0.1,0-0.2,0-0.4c0-0.2,0-0.3,0-0.4C274.4,473.5,274.5,473.4,274.6,473.4z"/>
				<path class="st21" d="M282.9,459l1.1,3.4c1.7-0.5,3.1-0.4,4.1,0.4c1,0.8,1.3,1.8,0.8,2.8c0,0.1-0.1,0.1-0.1,0.1
				c-0.7-0.3-1.2-0.3-1.6-0.1c-0.1,0-0.1,0-0.1-0.1c0.7-0.6,0.7-1.2,0-1.9c-0.9-0.7-1.9-1-3-0.9l-2.4-2.5l-0.8,1.1l9.5,7.1
				c0.2,0.2,0.1,0.5-0.1,0.9c-0.2,0.4-0.4,0.5-0.6,0.4c-0.2-0.1-0.5-0.4-1.1-0.8c-0.6-0.5-1-0.9-1.3-1l-8-6c0.6-0.4,1-0.7,1.3-0.7
				l0.8-1.1c0-0.1-0.1-0.2-0.2-0.5c0-0.1,0-0.1-0.1-0.1c0-0.1,0-0.2,0.1-0.2c0.5-0.4,1.1-0.7,1.6-0.8c0.1,0,0.2,0,0.2,0.1
				C283,458.6,283,458.8,282.9,459z M283,455.9c1-1.1,1.9-1.5,2.7-1.2c0.6,0.3,0.8,0.8,0.5,1.5l1.8-2.3c0-0.1-0.1-0.2-0.1-0.4
				c-0.1-0.2-0.1-0.3-0.1-0.3c0-0.1,0-0.1,0.1-0.2c0.5-0.2,1.2-0.4,2.1-0.5c0.1,0.1,0.2,0.2,0.2,0.3c-0.2,0.3-0.5,0.5-0.8,0.8
				c-0.1,0.3-0.2,0.6-0.2,1.1c0,0.1-0.1,0.2-0.1,0.3c0,0.1-0.1,0.1-0.2,0c-0.1-0.2-0.2-0.3-0.3-0.6c-0.1-0.2-0.2-0.4-0.3-0.5
				l-3.6,4.8c0.4,0.2,0.7,0.6,0.9,1.1c0,0.5-0.1,0.8-0.5,1.1c-0.4,0.2-0.7,0.1-0.9-0.3c-0.1-0.1-0.1-0.3-0.1-0.6
				c0-0.6-0.2-1.1-0.6-1.6c-0.1,0,0-0.1,0.1-0.1c0.3,0,0.7,0,1.1,0.2l1.6-2.1c-0.2,0.1-0.4,0.2-0.6,0.2c-0.1,0-0.3-0.1-0.6-0.3
				c-0.6-0.4-1.2-0.5-1.7-0.3C283.1,456,283,456,283,455.9z M286.4,460l2.3-3.1c-0.1-0.4-0.2-0.9-0.3-1.4c0,0,0.1-0.1,0.1-0.1
				c0.5-0.2,1.1-0.3,1.7-0.3c0.2,0,0.2,0,0.1,0.2l-3.3,4.4c-0.2,0.2-0.4,0.5-0.6,0.7l-0.5,0C286.1,460.3,286.2,460.1,286.4,460z
				 M294.3,460.3c0.2,0.2,0.5,0.1,0.7-0.2l0.3-0.5c0.7-0.8,0.5-1.7-0.6-3c0-0.1,0-0.1,0.1-0.1c0.5,0.6,1.1,1,1.8,1.1
				c0.2,0,0.4,0,0.5,0.1c0.5,0.5,0.4,1.1-0.2,2l-1.4,1.9c-0.4,0.6-0.9,0.7-1.4,0.4l-3.7-2.8l-0.3,0.4c0,0.1,0.1,0.2,0.1,0.4
				c0,0.1,0,0.2,0,0.3c2.5,2,2.8,4.5,0.8,7.4c-0.1,0-0.1,0-0.1-0.1c1.1-2.4,0.6-4.4-1.7-6.2l-0.3-0.2l-0.1,0.1
				c-0.2,0.2-0.4,0.5-0.5,0.8l-0.5,0c0.1-0.2,0.2-0.3,0.4-0.4l3.3-4.4c0,0,0-0.1,0-0.2c-0.2-0.6-0.3-1-0.3-1.1c0-0.1,0-0.1,0.1-0.1
				l0,0c0.7-0.3,1.2-0.4,1.7-0.4c0.1,0,0.2,0.1,0.1,0.2l-1.5,2c0,0,0.1,0.1,0.1,0.2c0,0.1,0,0.1,0,0.2c0,0.1,0,0.2,0,0.2
				L294.3,460.3z"/>
		</g>
			<path class="st21" d="M202.9,521c-71,0-128.7-57.8-128.7-128.7c0-71,57.8-128.7,128.7-128.7c71,0,128.7,57.8,128.7,128.7
			C331.6,463.2,273.8,521,202.9,521z M202.9,268.4C134.6,268.4,79,324,79,392.3s55.6,123.8,123.8,123.8
			c68.3,0,123.8-55.6,123.8-123.8S271.1,268.4,202.9,268.4z"/>
			<rect x="206.4" y="277.3" class="st21" width="2.1" height="2.1"/>
	</g>
</g>
</svg>
